<svg width="21" height="20" viewBox="0 0 21 20" fill="none" xmlns="http://www.w3.org/2000/svg">
<path d="M16.8906 19.0449H3.23438C2.37715 19.043 1.55558 18.7016 0.949424 18.0955C0.343272 17.4893 0.00189863 16.6678 0 15.8105V4.66992C0 4.4793 0.0757252 4.29648 0.210517 4.16169C0.345309 4.0269 0.528126 3.95117 0.71875 3.95117C0.909374 3.95117 1.09219 4.0269 1.22698 4.16169C1.36177 4.29648 1.4375 4.4793 1.4375 4.66992V15.8105C1.4375 16.2871 1.62681 16.7442 1.96379 17.0811C2.30077 17.4181 2.75781 17.6074 3.23438 17.6074H16.8906C17.3672 17.6074 17.8242 17.4181 18.1612 17.0811C18.4982 16.7442 18.6875 16.2871 18.6875 15.8105V7.18555C18.6875 6.70899 18.4982 6.25194 18.1612 5.91496C17.8242 5.57798 17.3672 5.38867 16.8906 5.38867H4.3125C4.12188 5.38867 3.93906 5.31295 3.80427 5.17815C3.66948 5.04336 3.59375 4.86055 3.59375 4.66992C3.59375 4.4793 3.66948 4.29648 3.80427 4.16169C3.93906 4.0269 4.12188 3.95117 4.3125 3.95117H16.8906C17.7479 3.95307 18.5694 4.29444 19.1756 4.9006C19.7817 5.50675 20.1231 6.32832 20.125 7.18555V15.8105C20.1231 16.6678 19.7817 17.4893 19.1756 18.0955C18.5694 18.7016 17.7479 19.043 16.8906 19.0449Z" fill="black" fill-opacity="0.8"/>
<path d="M0.71875 5.38834C0.528126 5.38834 0.345309 5.31262 0.210517 5.17783C0.0757252 5.04303 0 4.86022 0 4.66959C0.00288664 3.89868 0.283498 3.15462 0.790406 2.57379C1.29731 1.99296 1.99656 1.61426 2.76 1.50709L13.6562 0.0264676C14.1056 -0.0318385 14.5623 0.00644656 14.9957 0.138764C15.4291 0.271081 15.8292 0.494383 16.1694 0.793744C16.5096 1.09311 16.782 1.46163 16.9683 1.87469C17.1547 2.28775 17.2507 2.73582 17.25 3.18897V3.95084C17.25 4.14147 17.1743 4.32428 17.0395 4.45908C16.9047 4.59387 16.7219 4.66959 16.5312 4.66959C16.3406 4.66959 16.1578 4.59387 16.023 4.45908C15.8882 4.32428 15.8125 4.14147 15.8125 3.95084V3.18897C15.8136 2.93865 15.761 2.69102 15.658 2.46284C15.5551 2.23467 15.4043 2.03128 15.2159 1.86647C15.0259 1.7028 14.8035 1.58108 14.5632 1.50924C14.323 1.43741 14.0702 1.41708 13.8216 1.44959L2.95406 2.93741C2.53485 2.99463 2.15046 3.20147 1.87175 3.5198C1.59304 3.83814 1.43881 4.2465 1.4375 4.66959C1.4375 4.86022 1.36177 5.04303 1.22698 5.17783C1.09219 5.31262 0.909374 5.38834 0.71875 5.38834ZM10.4219 15.9899C9.49787 15.9899 8.59461 15.7159 7.82632 15.2026C7.05803 14.6892 6.45923 13.9596 6.10563 13.1059C5.75202 12.2522 5.6595 11.3128 5.83977 10.4066C6.02003 9.50034 6.46499 8.66789 7.11836 8.01451C7.77173 7.36114 8.60418 6.91619 9.51044 6.73592C10.4167 6.55566 11.3561 6.64818 12.2097 7.00178C13.0634 7.35538 13.793 7.95419 14.3064 8.72248C14.8197 9.49076 15.0938 10.394 15.0938 11.318C15.0918 12.5565 14.599 13.7437 13.7233 14.6194C12.8476 15.4952 11.6603 15.988 10.4219 15.9899ZM10.4219 8.08366C9.78218 8.08366 9.15684 8.27335 8.62495 8.62875C8.09306 8.98414 7.6785 9.48928 7.4337 10.0803C7.1889 10.6713 7.12485 11.3216 7.24965 11.949C7.37445 12.5764 7.68249 13.1527 8.13483 13.6051C8.58716 14.0574 9.16347 14.3655 9.79088 14.4903C10.4183 14.6151 11.0686 14.551 11.6596 14.3062C12.2506 14.0614 12.7558 13.6468 13.1112 13.115C13.4666 12.5831 13.6562 11.9577 13.6562 11.318C13.6544 10.4608 13.313 9.63923 12.7068 9.03308C12.1007 8.42693 11.2791 8.08555 10.4219 8.08366Z" fill="black" fill-opacity="0.8"/>
<path d="M12.2188 12.3965H10.0625C9.87188 12.3965 9.68906 12.3208 9.55427 12.186C9.41948 12.0512 9.34375 11.8684 9.34375 11.6777V9.52148C9.34375 9.33086 9.41948 9.14804 9.55427 9.01325C9.68906 8.87846 9.87188 8.80273 10.0625 8.80273C10.2531 8.80273 10.4359 8.87846 10.5707 9.01325C10.7055 9.14804 10.7812 9.33086 10.7812 9.52148V10.959H12.2188C12.4094 10.959 12.5922 11.0347 12.727 11.1695C12.8618 11.3043 12.9375 11.4871 12.9375 11.6777C12.9375 11.8684 12.8618 12.0512 12.727 12.186C12.5922 12.3208 12.4094 12.3965 12.2188 12.3965Z" fill="#4E39CD"/>
</svg>
