<?xml version="1.0" encoding="UTF-8"?>
<svg version="1.1" xmlns="http://www.w3.org/2000/svg" width="512" height="512">
<path d="M0 0 C1.56014821 -0.00707339 3.12028957 -0.01582432 4.68041992 -0.02610779 C8.88043869 -0.04843743 13.08007781 -0.04570326 17.28013301 -0.03678632 C20.79454363 -0.03164957 24.30888459 -0.0389896 27.82328802 -0.04625839 C36.11028235 -0.06320073 44.39709222 -0.05974383 52.68408203 -0.04296875 C61.22656507 -0.0260003 69.76853885 -0.04195926 78.31096643 -0.07419163 C85.66158252 -0.10087356 93.01203992 -0.1081689 100.36269957 -0.09967655 C104.74635467 -0.0947497 109.12970252 -0.09695168 113.51331902 -0.11746407 C117.62830152 -0.13580301 121.74254774 -0.12988524 125.85749054 -0.10526466 C127.36636296 -0.10025358 128.87529139 -0.10375439 130.38411903 -0.11641312 C132.44511348 -0.13233711 134.50368009 -0.11740637 136.56455994 -0.09474182 C137.71688582 -0.09415551 138.86921171 -0.0935692 140.05645657 -0.09296513 C144.10099694 0.7336738 145.59753299 2.32754029 148.12133789 5.53344727 C148.76171684 7.52631664 148.76171684 7.52631664 148.78317261 9.48417664 C148.81299225 10.60872002 148.81299225 10.60872002 148.84341431 11.75598145 C148.83765884 12.9678009 148.83765884 12.9678009 148.83178711 14.20410156 C148.84697388 15.06659012 148.86216064 15.92907867 148.87780762 16.81770325 C148.92014897 19.66475618 148.92510345 22.51031797 148.92602539 25.35766602 C148.93955979 27.34439197 148.9539877 29.33111203 148.9692688 31.31782532 C148.99468682 35.48319493 148.99996436 39.64804122 148.99291992 43.81347656 C148.98683448 49.13266051 149.04460708 54.44898804 149.11958122 59.76756573 C149.16785821 63.8728495 149.17462024 67.97745306 149.16992569 72.08298683 C149.17396075 74.04252202 149.19233711 76.00208523 149.22573471 77.96133995 C149.4888763 95.16558532 149.4888763 95.16558532 144.1171875 101.23950195 C142.48257998 102.70575204 140.81703629 104.13829924 139.12133789 105.53344727 C137.63516988 107.04230386 136.1645173 108.56660348 134.70996094 110.10595703 C133.18720969 111.64844115 131.66147675 113.18798638 130.13305664 114.72485352 C128.89637993 115.97008034 128.89637993 115.97008034 127.63471985 117.24046326 C125.90418301 118.98036889 124.17224871 120.71888562 122.43896484 122.45605469 C119.81866815 125.08608051 117.20925737 127.72660397 114.59985352 130.36743164 C100.85713913 144.19820366 88.48012537 155.78266547 69.12133789 160.53344727 C69.117229 161.56751709 69.11312012 162.60158691 69.10888672 163.66699219 C69.08705922 167.51596425 69.03273363 171.36391925 68.96875 175.21240234 C68.94560123 176.87571439 68.93118158 178.53917236 68.92578125 180.20263672 C68.91646809 182.59898477 68.87543238 184.99304785 68.82836914 187.38891602 C68.83230179 188.12869186 68.83623444 188.86846771 68.84028625 189.63066101 C68.73989546 193.20996226 68.29221314 195.29252194 66.20878601 198.23004723 C61.83629634 201.49215641 58.38748815 201.23056956 53.06274414 201.16836548 C52.04111176 201.17616543 51.01947937 201.18396538 49.96688843 201.1920017 C46.53883959 201.21196729 43.11189524 201.19613839 39.68383789 201.18041992 C37.2281835 201.18719396 34.77253419 201.19609589 32.31689453 201.20697021 C26.33664821 201.22742395 20.35683638 201.2244012 14.37660694 201.20990701 C9.51642596 201.19861512 4.65633291 201.19708362 -0.20385742 201.20252609 C-0.89557667 201.20329226 -1.58729591 201.20405842 -2.29997635 201.20484781 C-3.70519005 201.20644643 -5.11040372 201.2080675 -6.51561737 201.20971076 C-19.69241215 201.22396859 -32.869033 201.2075751 -46.04579926 201.18070893 C-57.35215314 201.15837004 -68.65825036 201.16225017 -79.96459961 201.18530273 C-93.09422024 201.21206024 -106.22368843 201.22259529 -119.35333252 201.20724142 C-120.75337725 201.20564867 -122.15342201 201.20407682 -123.5534668 201.20252609 C-124.24231586 201.20175471 -124.93116493 201.20098334 -125.64088821 201.20018858 C-130.4952485 201.19587141 -135.34951211 201.20315846 -140.20385742 201.21492386 C-146.73745858 201.23041115 -153.27064959 201.21938528 -159.80422974 201.19045258 C-162.20483595 201.18383039 -164.60548289 201.18575861 -167.006073 201.1967659 C-170.27796009 201.21038728 -173.54828161 201.1933449 -176.82006836 201.16836548 C-177.77483063 201.17951909 -178.7295929 201.1906727 -179.71328735 201.20216429 C-184.1199611 201.13670217 -186.27073569 200.95624219 -189.96764183 198.38515282 C-192.21420854 195.03273065 -192.50667722 193.28117324 -192.51358032 189.27124023 C-192.52767944 188.0094696 -192.54177856 186.74769897 -192.55630493 185.44769287 C-192.54658426 184.05700323 -192.53634347 182.66631715 -192.52563477 181.27563477 C-192.53241293 179.80518512 -192.54131719 178.33474396 -192.55218506 176.86431885 C-192.57496194 172.876591 -192.56614915 168.88951058 -192.55028963 164.90177155 C-192.5376221 160.72673307 -192.5493731 156.55174966 -192.55722046 152.37670898 C-192.56631457 145.36570289 -192.5543355 138.35496023 -192.53051758 131.34399414 C-192.50330657 123.24072343 -192.51212092 115.13808174 -192.53964961 107.03482628 C-192.5623466 100.0749899 -192.56553793 93.11534277 -192.55245626 86.15548134 C-192.54466492 81.99976924 -192.54361121 77.84435272 -192.5601387 73.68865967 C-192.57459302 69.78138567 -192.56454532 65.87492184 -192.53566742 61.96773529 C-192.52906158 60.53466893 -192.53094588 59.10153428 -192.54198074 57.66849518 C-192.55566393 55.71090648 -192.53545374 53.75316861 -192.51358032 51.7956543 C-192.51169519 50.70060577 -192.50981007 49.60555725 -192.50786781 48.47732544 C-191.65694232 44.49608213 -190.0689578 42.99391974 -186.87866211 40.53344727 C-184.46196461 39.97521687 -184.46196461 39.97521687 -181.89668274 40.06916809 C-180.42818626 40.10259811 -180.42818626 40.10259811 -178.93002319 40.13670349 C-177.86675812 40.1861763 -176.80349304 40.23564911 -175.70800781 40.28662109 C-174.01391533 40.33354095 -174.01391533 40.33354095 -172.28559875 40.38140869 C-169.83051686 40.44955342 -167.37569424 40.52758871 -164.92119789 40.61429787 C-158.98624544 40.80796833 -153.04966225 40.88441982 -147.11246908 40.97567117 C-138.01657014 41.11867019 -128.92566512 41.30368767 -119.83496094 41.64746094 C-85.777213 44.6294236 -85.777213 44.6294236 -55.80486965 32.26966 C-51.47283697 28.0537908 -47.91734994 23.31440964 -44.51799107 18.33310795 C-34.03583166 3.34411978 -17.25920498 -0.08319102 0 0 Z M-35.87866211 39.53344727 C-35.87866211 39.86344727 -35.87866211 40.19344727 -35.87866211 40.53344727 C-34.02823555 40.54890846 -34.02823555 40.54890846 -32.14042664 40.56468201 C-20.5302722 40.66232221 -8.92017248 40.76504737 2.68989277 40.87278652 C8.65912832 40.92801547 14.62836877 40.9814355 20.59765625 41.03076172 C26.35537741 41.07840558 32.11303823 41.13074851 37.87068748 41.18638802 C40.07036021 41.20681145 42.27004949 41.22552455 44.46975136 41.24252129 C47.54418562 41.26656543 50.61850552 41.29662016 53.69287109 41.328125 C55.06527702 41.33675819 55.06527702 41.33675819 56.46540833 41.3455658 C57.30253357 41.35535461 58.13965881 41.36514343 59.00215149 41.37522888 C59.72944615 41.38168143 60.45674082 41.38813398 61.20607471 41.39478207 C63.12133789 41.53344727 63.12133789 41.53344727 66.12133789 42.53344727 C67.62964377 47.0583649 68.06406821 50.82581439 67.12133789 55.53344727 C65.41345215 57.92785645 65.41345215 57.92785645 63.15454102 60.29711914 C62.33493896 61.1646582 61.51533691 62.03219727 60.67089844 62.92602539 C59.40886597 64.21669922 59.40886597 64.21669922 58.12133789 65.53344727 C57.37215088 66.30366211 56.62296387 67.07387695 55.85107422 67.86743164 C53.57297529 70.18029352 51.27284348 72.46894292 48.96508789 74.75219727 C48.13674438 75.57675415 47.30840088 76.40131104 46.45495605 77.25085449 C43.84620039 79.84753087 41.23418698 82.44089028 38.62133789 85.03344727 C35.14974059 88.4785149 31.68143284 91.92684586 28.21508789 95.37719727 C27.41727905 96.16670776 26.61947021 96.95621826 25.79748535 97.76965332 C25.06582153 98.49801392 24.33415771 99.22637451 23.58032227 99.97680664 C22.9346228 100.61726929 22.28892334 101.25773193 21.62365723 101.91760254 C18.86554518 104.88413615 18.79201588 107.49552579 18.82836914 111.49438477 C19.28388756 114.66479293 20.87449446 116.35268747 23.12133789 118.53344727 C26.42729738 120.18642701 29.57424054 120.28788353 33.12133789 119.53344727 C35.04637911 118.29310161 35.04637911 118.29310161 36.81933594 116.57373047 C37.51384857 115.93561432 38.20836121 115.29749817 38.92391968 114.64004517 C42.78050172 110.94285744 46.57017621 107.18597696 50.32836914 103.38891602 C51.17558029 102.53791824 52.02279144 101.68692047 52.89567566 100.81013489 C55.57751736 98.11616635 58.25607273 95.41896747 60.93383789 92.72094727 C64.47915371 89.14907714 68.02774065 85.58050419 71.57836914 82.01391602 C72.39086624 81.19312057 73.20336334 80.37232513 74.04048157 79.5266571 C74.79524277 78.76859268 75.55000397 78.01052826 76.32763672 77.22949219 C76.98967606 76.56221603 77.65171539 75.89493988 78.33381653 75.20744324 C81.65331811 72.09876303 83.66834478 71.27305601 88.12133789 71.34594727 C88.98758789 71.35239258 89.85383789 71.35883789 90.74633789 71.36547852 C93.12133789 71.53344727 93.12133789 71.53344727 96.12133789 72.53344727 C97.63066908 77.06144085 98.0557555 80.82200685 97.12133789 85.53344727 C93.24626654 91.13070917 88.0378567 95.69772425 82.86743164 100.07641602 C71.82184897 109.12635348 71.82184897 109.12635348 66.82836914 121.94360352 C66.66485676 127.54016688 67.14652129 133.0234839 68.12133789 138.53344727 C73.92777489 137.12866412 77.4793208 135.51854375 81.82006836 131.37719727 C85.11209332 128.32364095 88.41890311 125.46148022 92.02026367 122.77954102 C116.2186616 105.26596612 116.2186616 105.26596612 129.48348701 79.5666647 C130.45495333 70.97994457 130.01306397 62.35658506 129.48604584 53.75396729 C129.27858425 49.99400224 129.19111406 46.23113924 129.09179688 42.46704102 C128.88184149 35.14827774 128.54525948 27.84328498 128.12133789 20.53344727 C110.82262435 20.48664289 93.52393068 20.45141717 76.22516823 20.42982292 C68.19232689 20.41952804 60.159525 20.40550204 52.12670898 20.38256836 C45.12201865 20.36257958 38.11735689 20.34971784 31.11263883 20.34527028 C27.40668726 20.34267216 23.7008174 20.33660305 19.99489212 20.32198715 C15.84901618 20.30577006 11.70328064 20.30547109 7.55737305 20.30639648 C6.34032684 20.29920593 5.12328064 20.29201538 3.86935425 20.28460693 C-14.64690277 20.32921379 -23.66184403 26.25783829 -35.87866211 39.53344727 Z M-142.87866211 60.53344727 C-144.19866211 63.83344727 -145.51866211 67.13344727 -146.87866211 70.53344727 C-152.70885269 80.55499375 -161.25875214 85.55098103 -171.87866211 89.53344727 C-171.87866211 109.99344727 -171.87866211 130.45344727 -171.87866211 151.53344727 C-168.57866211 152.85344727 -165.27866211 154.17344727 -161.87866211 155.53344727 C-151.85711562 161.36363784 -146.86112835 169.9135373 -142.87866211 180.53344727 C-89.41866211 180.53344727 -35.95866211 180.53344727 19.12133789 180.53344727 C20.44133789 177.23344727 21.76133789 173.93344727 23.12133789 170.53344727 C28.73074877 160.89140021 37.62556331 154.8376726 48.12133789 151.53344727 C48.12133789 146.25344727 48.12133789 140.97344727 48.12133789 135.53344727 C46.63633789 136.19344727 45.15133789 136.85344727 43.62133789 137.53344727 C34.00022036 140.97575186 23.86555718 141.31221285 14.49633789 136.97094727 C9.66715992 134.17028578 6.08931794 131.27042205 3.12133789 126.53344727 C2.71141602 125.91211914 2.30149414 125.29079102 1.87915039 124.65063477 C-2.42148228 116.85017689 -1.8741634 107.28166439 -0.39428711 98.73657227 C2.25031217 90.47894594 9.13869469 84.50695433 15.12133789 78.53344727 C15.85368652 77.7994873 16.58603516 77.06552734 17.34057617 76.30932617 C20.44666456 73.19936083 23.55249021 70.08967735 26.68457031 67.00585938 C27.39073486 66.30855713 28.09689941 65.61125488 28.82446289 64.89282227 C29.46029297 64.26859375 30.09612305 63.64436523 30.7512207 63.0012207 C32.23506626 61.74625939 32.23506626 61.74625939 32.12133789 60.53344727 C-25.62866211 60.53344727 -83.37866211 60.53344727 -142.87866211 60.53344727 Z " fill="#000000" transform="translate(363.878662109375,35.466552734375)"/>
<path d="M0 0 C0.77661924 -0.00779995 1.55323849 -0.01559991 2.35339165 -0.02363622 C4.95238743 -0.04355975 7.54991948 -0.0277912 10.14892578 -0.01205444 C12.01345677 -0.01883043 13.87798107 -0.02773346 15.74249268 -0.03860474 C20.80452113 -0.06140683 25.86604029 -0.05255791 30.9280777 -0.03670931 C36.22420123 -0.02405509 41.52028101 -0.0357891 46.81640625 -0.04364014 C55.71052891 -0.05273808 64.60444401 -0.04074493 73.49853516 -0.01693726 C83.78302328 0.01027422 94.06701581 0.00146017 104.35149193 -0.02606928 C113.17966646 -0.04875517 122.00769174 -0.05196296 130.835886 -0.03887594 C136.10940297 -0.03107859 141.38268694 -0.03004771 146.65618896 -0.04655838 C151.61399294 -0.06099623 156.57115764 -0.05099381 161.52889252 -0.0220871 C163.34897551 -0.01547264 165.16911225 -0.01738011 166.98917389 -0.02840042 C169.47300231 -0.04205382 171.95477912 -0.02494494 174.43847656 0 C175.52043462 -0.01673041 175.52043462 -0.01673041 176.62425041 -0.03379881 C180.30697163 0.0380074 182.14310511 0.58063777 185.1658535 2.73575783 C187.70642421 6.3227728 187.84752264 8.28386406 187.85415649 12.65640259 C187.86195645 13.35135078 187.8697564 14.04629898 187.87779272 14.76230621 C187.89769578 17.08497031 187.88195683 19.40599273 187.86621094 21.72866821 C187.87298789 23.3961584 187.88189146 25.06364109 187.89276123 26.73110962 C187.9155522 31.25598506 187.9067192 35.78029039 187.8908658 40.30517578 C187.87820572 45.04075658 187.88994722 49.77628862 187.89779663 54.51187134 C187.90689288 62.46443444 187.89490594 70.41676536 187.87109375 78.36929321 C187.84388249 87.56316993 187.85269667 96.75649225 187.88022578 105.95035553 C187.90291655 113.8443603 187.90611709 121.73819819 187.89303243 129.63222504 C187.88523774 134.34683825 187.8841968 139.06119089 187.90071487 143.77578735 C187.91515997 148.20832262 187.90513758 152.64014325 187.87624359 157.07260132 C187.86963293 158.69917616 187.87153019 160.32581116 187.88255692 161.95236206 C187.89622626 164.1735307 187.87908479 166.39241101 187.85415649 168.61343384 C187.85227137 169.85596924 187.85038624 171.09850464 187.84844398 172.37869263 C187.04020915 176.56141847 185.54833442 178.05200751 182.21923828 180.63491821 C179.22732385 181.07349088 176.82908943 181.22393597 173.85595703 181.12319946 C173.06397415 181.11612473 172.27199127 181.10904999 171.45600891 181.10176086 C168.93860439 181.07388065 166.42346472 181.01116021 163.90673828 180.94741821 C162.19518198 180.92232683 160.48359063 180.89951512 158.77197266 180.87905884 C154.58686174 180.82407568 150.40343332 180.73785239 146.21923828 180.63491821 C146.54923828 181.29491821 146.87923828 181.95491821 147.21923828 182.63491821 C148.21772846 193.22649758 147.57939262 201.65753222 141.21923828 210.63491821 C136.39448598 216.30974592 129.57677754 220.10034718 122.17486 221.00839424 C118.57262948 221.16091464 114.9899643 221.18684177 111.38452148 221.16836548 C110.00690289 221.17543599 108.62929205 221.18418573 107.25169373 221.19447327 C103.53226827 221.21685927 99.81327056 221.21405181 96.09380364 221.2051518 C92.97555584 221.20001596 89.85738659 221.20735599 86.73914689 221.21462387 C79.37282079 221.23159113 72.00670196 221.22809212 64.64038086 221.21133423 C57.07456991 221.19444337 49.50933724 221.21021242 41.94358951 221.24255711 C35.42005791 221.26937599 28.89670495 221.27649526 22.37312382 221.26804203 C18.48934966 221.26314504 14.60592247 221.26514995 10.72219276 221.28582954 C7.06354438 221.30437951 3.40571644 221.29799723 -0.25288963 221.27363014 C-2.21105147 221.26634902 -4.16925834 221.2833304 -6.12734985 221.30145264 C-22.41916646 221.12980597 -34.81361506 214.64757737 -46.08966064 203.31430054 C-48.73519198 200.58237401 -51.35715237 197.82965726 -53.97216797 195.06851196 C-54.89980973 194.09343332 -55.82765772 193.11855085 -56.75570679 192.14385986 C-57.6997613 191.15079321 -58.64365855 190.15757703 -59.58740234 189.16421509 C-60.06062738 188.66640722 -60.53385242 188.16859936 -61.02141762 187.65570641 C-63.43376832 185.11132457 -65.82616439 182.55194051 -68.18725586 179.95986938 C-79.93897637 166.10980348 -79.93897637 166.10980348 -96.22019958 160.06364441 C-99.43259274 160.11688931 -102.57064187 160.38330503 -105.73326111 160.95414734 C-109.34212461 160.3914836 -110.64721235 158.48159243 -112.78076172 155.63491821 C-113.49333746 152.71223695 -113.46492308 149.88221675 -113.42773438 146.88491821 C-113.43649597 146.01439819 -113.44525757 145.14387817 -113.45428467 144.24697876 C-113.47625167 141.37578157 -113.46173571 138.50613045 -113.44482422 135.63491821 C-113.44819313 133.63621729 -113.45304638 131.63751837 -113.45932007 129.63882446 C-113.46668774 125.45242789 -113.45598912 121.26656517 -113.43261719 117.08023071 C-113.40412966 111.71643583 -113.42053417 106.35389182 -113.45047951 100.99014282 C-113.46855522 96.86366364 -113.46279316 92.73748058 -113.44984055 88.61099243 C-113.4465073 86.63345186 -113.45059075 84.65588432 -113.46223831 82.67837524 C-113.47495145 79.91316618 -113.4555641 77.14997697 -113.42773438 74.38491821 C-113.44291611 73.16131592 -113.44291611 73.16131592 -113.45840454 71.91299438 C-113.38447592 67.94408362 -113.03514947 66.02578352 -110.82084656 62.6235199 C-106.61943194 59.87526101 -103.41259876 59.96566844 -98.49243164 60.06729126 C-97.10145264 60.06619606 -97.10145264 60.06619606 -95.68237305 60.06507874 C-92.62472545 60.0685554 -89.56861113 60.10742089 -86.51123047 60.14663696 C-84.38846163 60.15596479 -82.26568202 60.16308104 -80.14289856 60.16807556 C-74.5613116 60.18714757 -68.98037731 60.23625085 -63.39904785 60.29159546 C-57.70150583 60.34278313 -52.00385813 60.36558862 -46.30615234 60.39077759 C-35.1307357 60.44436879 -23.95580303 60.52968465 -12.78076172 60.63491821 C-12.79186478 59.95697708 -12.80296783 59.27903595 -12.81440735 58.58055115 C-12.92502959 51.52418187 -13.0004416 44.46805891 -13.05541992 37.41104126 C-13.08056329 34.77747594 -13.11468256 32.1439804 -13.15795898 29.51065063 C-13.21861382 25.72507513 -13.24697442 21.94042224 -13.26904297 18.15444946 C-13.2948494 16.97719803 -13.32065582 15.79994659 -13.34724426 14.58702087 C-13.34762192 13.48625717 -13.34799957 12.38549347 -13.34838867 11.25137329 C-13.35949173 10.28540726 -13.37059479 9.31944122 -13.3820343 8.32420349 C-11.79798235 1.23928443 -6.46149968 -0.09991474 0 0 Z M7.21923828 20.63491821 C6.95111328 28.16304321 6.68298828 35.69116821 6.40673828 43.44741821 C6.28838623 45.80100464 6.17003418 48.15459106 6.0480957 50.57949829 C6.0100711 52.47938457 5.97695751 54.37937811 5.94970703 56.27944946 C5.84994568 57.71725769 5.84994568 57.71725769 5.74816895 59.18411255 C5.73997734 64.15263545 6.34184234 66.69510857 9.79350281 70.39230347 C12.58079973 72.81996867 15.52366194 75.03606877 18.47295952 77.26164055 C23.27772137 81.0401164 27.46468468 85.57265401 31.77783203 89.89273071 C32.82083903 90.93183209 33.86406201 91.97071672 34.90748596 93.00939941 C37.06776156 95.16230655 39.22424621 97.3189226 41.37817383 99.47817993 C44.11845427 102.22429141 46.87003368 104.95877029 49.62473965 107.69040108 C51.77230842 109.82315474 53.91282204 111.96288415 56.05143929 114.10461044 C57.0628488 115.11551226 58.07657301 116.12410451 59.09280205 117.13016129 C66.72901472 124.69914657 72.78890935 131.34393142 76.21923828 141.63491821 C76.21923828 147.90491821 76.21923828 154.17491821 76.21923828 160.63491821 C105.91923828 160.63491821 135.61923828 160.63491821 166.21923828 160.63491821 C166.21923828 114.43491821 166.21923828 68.23491821 166.21923828 20.63491821 C146.74923828 20.63491821 127.27923828 20.63491821 107.21923828 20.63491821 C106.88923828 43.40491821 106.55923828 66.17491821 106.21923828 89.63491821 C100.21923828 89.63491821 100.21923828 89.63491821 98.43652344 88.53335571 C97.72955322 87.77925415 97.72955322 87.77925415 97.00830078 87.00991821 C96.48623047 86.46851196 95.96416016 85.92710571 95.42626953 85.36929321 C94.90419922 84.79694946 94.38212891 84.22460571 93.84423828 83.63491821 C93.02632812 82.77640259 93.02632812 82.77640259 92.19189453 81.90054321 C90.85364816 80.49186282 89.53448853 79.06509324 88.21923828 77.63491821 C83.28283465 79.61402934 80.34323564 83.65444465 76.85205078 87.51773071 C74.21923828 89.63491821 74.21923828 89.63491821 68.21923828 89.63491821 C67.88923828 66.86491821 67.55923828 44.09491821 67.21923828 20.63491821 C47.41923828 20.63491821 27.61923828 20.63491821 7.21923828 20.63491821 Z M-92.78076172 80.63491821 C-92.78076172 100.43491821 -92.78076172 120.23491821 -92.78076172 140.63491821 C-87.83076172 140.96491821 -82.88076172 141.29491821 -77.78076172 141.63491821 C-73.75541356 144.60847645 -71.03260247 147.00380233 -67.78076172 150.63491821 C-66.07856146 152.33687113 -64.37063812 154.03311653 -62.6574707 155.72402954 C-60.8619053 157.5530151 -59.06844387 159.38406804 -57.27685547 161.21694946 C-55.80568852 162.71023615 -54.33266438 164.20167634 -52.85965824 165.69314861 C-49.27692085 169.32112571 -45.6985823 172.95322651 -42.13647461 176.60147095 C-39.63313739 179.16454697 -37.11745464 181.71493445 -34.59346199 184.25766563 C-33.18824057 185.6801182 -31.79636657 187.11571763 -30.40489197 188.55162048 C-20.44766161 198.55021053 -11.89077854 200.71725339 1.88162231 200.79266357 C3.56661331 200.79434036 3.56661331 200.79434036 5.28564453 200.79605103 C6.48486542 200.80101593 7.6840863 200.80598083 8.91964722 200.81109619 C12.19233141 200.82315264 15.46498001 200.83064836 18.73768234 200.83510685 C20.7855837 200.83804874 22.83347959 200.84215543 24.88137817 200.84661102 C31.29874486 200.86026019 37.71609893 200.8699413 44.13347912 200.87381291 C51.52406546 200.8782974 58.91446722 200.89587408 66.30499744 200.92481351 C72.03174368 200.94645526 77.75843804 200.9565184 83.48522472 200.95785403 C86.89981905 200.95889962 90.31423924 200.96475555 93.72879028 200.98267365 C97.5369469 200.99972778 101.34465273 200.99785552 105.15283203 200.99136353 C106.27615936 201.00057831 107.39948669 201.00979309 108.55685425 201.01928711 C114.53417916 200.98736664 118.99856064 200.66314655 124.21923828 197.63491821 C126.67045225 193.95809726 127.0434259 190.90570859 126.21923828 186.63491821 C123.52907529 183.12276097 121.54468756 181.34589293 117.21923828 180.63491821 C114.66372134 180.54266585 112.1352771 180.50146874 109.58007812 180.50894165 C108.8152713 180.50707352 108.05046448 180.50520538 107.26248169 180.50328064 C105.60375683 180.49928244 103.94502648 180.49720233 102.28629684 180.49681854 C98.74898793 180.49339089 95.21186081 180.47200904 91.67461586 180.45158768 C85.09425107 180.41365436 78.51408048 180.38229664 71.93359375 180.38442993 C67.3510545 180.38522051 62.76918206 180.36170511 58.18681717 180.32254791 C56.44789255 180.31213759 54.70889049 180.310527 52.96995163 180.31819916 C40.06393813 180.3694399 31.05757849 178.90862344 21.41455078 169.63491821 C20.92125275 169.1656189 20.42795471 168.69631958 19.91970825 168.21279907 C18.33918217 166.70029831 16.77788607 165.16993376 15.21923828 163.63491821 C14.68423706 163.11300903 14.14923584 162.59109985 13.59802246 162.05337524 C10.28810687 158.82296458 7.0067124 155.56545256 3.74267578 152.28872681 C2.06415476 150.60473667 0.38020623 148.92630172 -1.30419922 147.24819946 C-2.38264583 146.16909369 -3.46078308 145.08967865 -4.53857422 144.00991821 C-5.03745148 143.51306519 -5.53632874 143.01621216 -6.05032349 142.50430298 C-11.66247958 136.8538257 -11.66247958 136.8538257 -12.01123047 133.25991821 C-11.99705078 132.39366821 -11.98287109 131.52741821 -11.96826172 130.63491821 C-11.96181641 129.76866821 -11.95537109 128.90241821 -11.94873047 128.00991821 C-11.78076172 125.63491821 -11.78076172 125.63491821 -10.78076172 122.63491821 C-6.24789511 121.12396268 -2.49911201 120.71782128 2.21923828 121.63491821 C4.42797852 123.15493774 4.42797852 123.15493774 6.65283203 125.26773071 C7.5177124 126.08451294 8.38259277 126.90129517 9.27368164 127.74282837 C10.25795399 128.70438723 11.23964673 129.6685912 12.21923828 130.63491821 C12.76548859 131.1725177 13.31173889 131.71011719 13.87454224 132.26400757 C18.18713003 136.52361665 22.45626088 140.82574756 26.71923828 145.13491821 C29.2267862 147.6690345 31.73763131 150.1998177 34.25048828 152.72866821 C34.82126099 153.30773926 35.39203369 153.8868103 35.98010254 154.48342896 C40.23206799 158.7930394 40.23206799 158.7930394 46.03173828 159.94741821 C49.35151155 159.91723846 50.20968349 159.64101702 53.15673828 157.75991821 C55.89405946 154.93964791 56.17058223 153.9876746 56.71923828 150.00991821 C56.64675759 146.38890583 55.8626923 144.75922353 53.421875 142.11245728 C52.46302399 141.06910217 52.46302399 141.06910217 51.48480225 140.00466919 C46.85858463 135.16570464 42.18940214 130.37422267 37.47705078 125.61929321 C36.9210104 125.05792915 36.36497002 124.49656509 35.79207993 123.91819 C32.8541518 120.95372929 29.91269048 117.99282156 26.96875 115.03433228 C24.54891092 112.60111671 22.13656729 110.16082238 19.73046875 107.71401978 C16.80283669 104.73689919 13.86295909 101.77240354 10.91402817 98.81638336 C9.8006994 97.69638063 8.69159732 96.57215844 7.58703995 95.44350433 C-1.59978252 86.06761635 -8.86781194 80.96141555 -22.43186951 80.5146637 C-23.73092728 80.51688431 -25.02998505 80.51910492 -26.3684082 80.52139282 C-27.45258781 80.52117378 -27.45258781 80.52117378 -28.55867004 80.52095032 C-30.92309683 80.52164122 -33.28744262 80.52939469 -35.65185547 80.53726196 C-37.30094866 80.53912907 -38.95004241 80.54055159 -40.59913635 80.54154968 C-44.92110753 80.54535182 -49.24304464 80.55516224 -53.56500244 80.56625366 C-58.76051886 80.57832486 -63.95604673 80.582881 -69.15157318 80.58870697 C-77.02799299 80.59837538 -84.90433817 80.61754801 -92.78076172 80.63491821 Z " fill="#000000" transform="translate(112.78076171875,255.36508178710938)"/>
<path d="M0 0 C3.58598889 2.54054385 6.15992797 5.04327701 8.4921875 8.765625 C8.90210938 9.38695312 9.31203125 10.00828125 9.734375 10.6484375 C13.58244889 17.62804738 13.74273274 26.02607545 12.4921875 33.765625 C10.09120579 41.34186763 6.27912589 47.51322792 -0.5078125 51.765625 C-1.12914062 52.17554688 -1.75046875 52.58546875 -2.390625 53.0078125 C-9.37023488 56.85588639 -17.76826295 57.01617024 -25.5078125 55.765625 C-33.08405513 53.36464329 -39.25541542 49.55256339 -43.5078125 42.765625 C-43.91773438 42.14429688 -44.32765625 41.52296875 -44.75 40.8828125 C-48.59807389 33.90320262 -48.75835774 25.50517455 -47.5078125 17.765625 C-45.10683079 10.18938237 -41.29475089 4.01802208 -34.5078125 -0.234375 C-33.88648438 -0.64429688 -33.26515625 -1.05421875 -32.625 -1.4765625 C-22.455808 -7.08315125 -9.72162164 -5.63801363 0 0 Z " fill="#000000" transform="translate(319.5078125,130.234375)"/>
</svg>
