<svg width="22" height="20" viewBox="0 0 22 20" fill="none" xmlns="http://www.w3.org/2000/svg">
<path fill-rule="evenodd" clip-rule="evenodd" d="M1 3.14286C1 1.95939 2.06599 1 3.38095 1H18.619C19.934 1 21 1.95939 21 3.14286V9.57143H20.0476V3.14286C20.0476 2.43277 19.408 1.85714 18.619 1.85714H3.38095C2.59197 1.85714 1.95238 2.43277 1.95238 3.14286V16.8571C1.95238 17.5672 2.59197 18.1429 3.38095 18.1429H10.5238V19H3.38095C2.06599 19 1 18.0406 1 16.8571V3.14286Z" fill="black" fill-opacity="0.8"/>
<path d="M21 9.66617H21.0947V9.57143V3.14286C21.0947 1.89793 19.9767 0.905263 18.619 0.905263H3.38095C2.0233 0.905263 0.905263 1.89793 0.905263 3.14286V16.8571C0.905263 18.1021 2.0233 19.0947 3.38095 19.0947H10.5238H10.6185V19V18.1429V18.0481H10.5238H3.38095C2.63466 18.0481 2.04712 17.5057 2.04712 16.8571V3.14286C2.04712 2.49424 2.63466 1.95188 3.38095 1.95188H18.619C19.3653 1.95188 19.9529 2.49424 19.9529 3.14286V9.57143V9.66617H20.0476H21Z" stroke="black" stroke-opacity="0.8" stroke-width="0.189474"/>
<path fill-rule="evenodd" clip-rule="evenodd" d="M8 1.42857C8 1.19188 8.19188 1 8.42857 1H13.5714C13.8081 1 14 1.19188 14 1.42857V7.42855C14 7.56631 13.9337 7.69568 13.822 7.77622C13.7103 7.85677 13.5666 7.87869 13.4359 7.83512L11 7.02316L8.56409 7.83512C8.4334 7.87869 8.28974 7.85677 8.17798 7.77622C8.06622 7.69568 8 7.56631 8 7.42855V1.42857ZM8.85714 1.85714V6.83394L10.8645 6.16483C10.9524 6.13551 11.0476 6.13551 11.1355 6.16483L13.1428 6.83394V1.85714H8.85714Z" fill="black" fill-opacity="0.8"/>
<path d="M13.8774 7.85308L13.8775 7.85306C14.0138 7.75472 14.0947 7.59677 14.0947 7.42855V1.42857C14.0947 1.13955 13.8604 0.905263 13.5714 0.905263H8.42857C8.13956 0.905263 7.90526 1.13956 7.90526 1.42857V7.42855C7.90526 7.59676 7.98612 7.75472 8.12258 7.85308C8.25905 7.95143 8.43447 7.9782 8.59405 7.925L11 7.12302L13.4059 7.925C13.5655 7.9782 13.741 7.95143 13.8774 7.85308ZM10.8345 6.07496L8.95188 6.7025V1.95188H13.0481V6.7025L11.1655 6.07496C11.1655 6.07496 11.1655 6.07496 11.1655 6.07496C11.0581 6.03915 10.9419 6.03915 10.8345 6.07496C10.8345 6.07496 10.8345 6.07496 10.8345 6.07496Z" stroke="black" stroke-opacity="0.8" stroke-width="0.189474"/>
<path fill-rule="evenodd" clip-rule="evenodd" d="M15.2857 10.8571C13.3922 10.8571 11.8571 12.3922 11.8571 14.2857C11.8571 16.1792 13.3922 17.7143 15.2857 17.7143C17.1792 17.7143 18.7143 16.1792 18.7143 14.2857C18.7143 12.3922 17.1792 10.8571 15.2857 10.8571ZM11 14.2857C11 11.9188 12.9188 10 15.2857 10C17.6526 10 19.5714 11.9188 19.5714 14.2857C19.5714 16.6526 17.6526 18.5714 15.2857 18.5714C12.9188 18.5714 11 16.6526 11 14.2857Z" fill="black" fill-opacity="0.8"/>
<path d="M11.9071 14.2857C11.9071 12.4198 13.4198 10.9071 15.2857 10.9071C17.1516 10.9071 18.6643 12.4198 18.6643 14.2857C18.6643 16.1516 17.1516 17.6643 15.2857 17.6643C13.4198 17.6643 11.9071 16.1516 11.9071 14.2857ZM15.2857 9.95C12.8912 9.95 10.95 11.8912 10.95 14.2857C10.95 16.6802 12.8912 18.6214 15.2857 18.6214C17.6802 18.6214 19.6214 16.6802 19.6214 14.2857C19.6214 11.8912 17.6802 9.95 15.2857 9.95Z" stroke="black" stroke-opacity="0.8" stroke-width="0.1"/>
<path d="M14.9824 14.8374H15.0098C15.4553 14.8057 15.8015 14.4996 15.8416 14.1027H16.4517V13.7101H15.8247C15.8057 13.5729 15.7086 13.4293 15.5925 13.3575V13.3322H16.4517V12.9459H14.1971V13.3554H14.7628C15.0288 13.3554 15.2252 13.4969 15.2589 13.7101H14.1992V14.1027H15.2632C15.2273 14.3244 15.0014 14.4722 14.6932 14.4722H14.1949V14.7403L15.2062 15.9922H15.9303L14.9824 14.8374Z" fill="#6F57E9"/>
</svg>
