<?xml version="1.0" encoding="UTF-8"?>
<svg version="1.1" xmlns="http://www.w3.org/2000/svg" width="512" height="512">
<path d="M0 0 C142.56 0 285.12 0 432 0 C432 63.03 432 126.06 432 191 C426.72 188.69 421.44 186.38 416 184 C416 170.8 416 157.6 416 144 C284 144 152 144 16 144 C16 180.96 16 217.92 16 256 C97.84 256 179.68 256 264 256 C262.35 261.28 260.7 266.56 259 272 C173.53 272 88.06 272 0 272 C0 182.24 0 92.48 0 0 Z M16 16 C16 31.84 16 47.68 16 64 C148 64 280 64 416 64 C416 48.16 416 32.32 416 16 C284 16 152 16 16 16 Z M16 80 C16 95.84 16 111.68 16 128 C148 128 280 128 416 128 C416 112.16 416 96.32 416 80 C284 80 152 80 16 80 Z " fill="#000000" transform="translate(16,56)"/>
<path d="M0 0 C5.28 0 10.56 0 16 0 C16 5.28 16 10.56 16 16 C18.64 16 21.28 16 24 16 C33.45909739 18.39826974 39.60624733 23.65709654 44.7421875 31.8046875 C48.0827184 37.6350551 48 40.97791069 48 48 C42.39 48 36.78 48 31 48 C30.608125 46.5975 30.21625 45.195 29.8125 43.75 C28.36653047 39.46589492 27.04302346 37.29717242 23 35 C20.69 34.34 18.38 33.68 16 33 C16 43.23 16 53.46 16 64 C18.64 64 21.28 64 24 64 C33.06827378 66.53232606 39.67310184 71.86373678 44.73828125 79.62109375 C49.01667825 87.68779273 49.55821932 97.96927008 47.27734375 106.796875 C46.33609299 109.00709945 45.28050142 110.96973129 44 113 C43.649375 113.62132812 43.29875 114.24265625 42.9375 114.8828125 C39.14660104 120.96404624 33.37161354 124.48621433 26.9375 127.375 C24 128 24 128 16 128 C16 133.28 16 138.56 16 144 C10.72 144 5.44 144 0 144 C0 138.72 0 133.44 0 128 C-2.64 128 -5.28 128 -8 128 C-17.07128076 125.46683423 -23.88095796 120.10787193 -28.77734375 112.1953125 C-32.04722342 106.32415476 -32 103.04352957 -32 96 C-26.39 96 -20.78 96 -15 96 C-14.608125 97.4025 -14.21625 98.805 -13.8125 100.25 C-12.36653047 104.53410508 -11.04302346 106.70282758 -7 109 C-4.69 109.66 -2.38 110.32 0 111 C0 100.77 0 90.54 0 80 C-2.64 80 -5.28 80 -8 80 C-17.06827378 77.46767394 -23.67310184 72.13626322 -28.73828125 64.37890625 C-33.12320348 56.11135939 -33.37230296 46.02721698 -31.3125 36.98046875 C-28.03338247 28.08586245 -22.34583065 22.3075255 -14 18 C-8.7575063 15.706409 -6.25777989 16 0 16 C0 10.72 0 5.44 0 0 Z M-11 37 C-14.93626932 41.35061345 -15.63883919 44.91777006 -15.3828125 50.6015625 C-14.57430704 55.66709673 -11.92421704 58.25276069 -8.0625 61.375 C-4.84169574 63.39059651 -4.84169574 63.39059651 0 63 C0 53.1 0 43.2 0 33 C-5.5540492 33 -6.80747596 33.61029971 -11 37 Z M16 81 C16 90.9 16 100.8 16 111 C23.45868849 109.93447307 24.19268473 109.80731527 29 105 C31.73644367 100.54510707 31.64310319 96.08051521 31 91 C28.66470799 86.14977814 25.7405686 83.51540375 21 81 C19.35 81 17.7 81 16 81 Z " fill="#000000" transform="translate(384,280)"/>
<path d="M0 0 C11.52164009 1.92710706 11.52164009 1.92710706 17 4 C14.85917614 23.48887929 5.99220031 39.78601453 -6 55 C-6.4640625 55.6084375 -6.928125 56.216875 -7.40625 56.84375 C-22.12667774 75.54267173 -46.44357482 86.30522412 -69.24609375 90.61328125 C-99.85192401 93.76622318 -128.03145845 87.21423768 -152.2578125 68.03271484 C-155.10535258 65.71094044 -157.62346362 63.32660985 -160.08984375 60.6015625 C-162.64822346 57.75983107 -162.64822346 57.75983107 -165.3984375 57.90234375 C-169.55421025 59.65575538 -173.60387226 61.5655924 -177.6484375 63.56054688 C-182.69906509 66 -182.69906509 66 -186 66 C-185.45168235 58.17100859 -184.89997496 50.34226126 -184.34594727 42.51367188 C-184.15775596 39.85228256 -183.97081511 37.19081383 -183.78442383 34.52929688 C-183.515868 30.69646808 -183.24452606 26.86384498 -182.97265625 23.03125 C-182.89032242 21.84760864 -182.80798859 20.66396729 -182.72315979 19.44445801 C-182.30585481 13.59982452 -181.80037324 7.80504167 -181 2 C-177.61998973 2.63117789 -175.38419008 3.89955041 -172.5703125 5.8515625 C-171.70277344 6.44864014 -170.83523438 7.04571777 -169.94140625 7.66088867 C-169.01199219 8.30904541 -168.08257812 8.95720215 -167.125 9.625 C-165.14854779 10.98844114 -163.17198185 12.35171744 -161.1953125 13.71484375 C-160.17727539 14.4197998 -159.15923828 15.12475586 -158.11035156 15.85107422 C-153.08951313 19.31994548 -148.04420053 22.75273311 -143 26.1875 C-142.08750488 26.81027832 -141.17500977 27.43305664 -140.23486328 28.07470703 C-139.3736084 28.6623584 -138.51235352 29.25000977 -137.625 29.85546875 C-136.82578125 30.40251465 -136.0265625 30.94956055 -135.203125 31.51318359 C-133.28013568 32.81094567 -131.33400122 34.0586692 -129.375 35.30078125 C-128.59125 35.86152344 -127.8075 36.42226563 -127 37 C-127 37.66 -127 38.32 -127 39 C-129.95564708 40.33934716 -132.9149378 41.67044247 -135.875 43 C-136.71675781 43.3815625 -137.55851562 43.763125 -138.42578125 44.15625 C-139.63427734 44.69765625 -139.63427734 44.69765625 -140.8671875 45.25 C-141.61081543 45.58515625 -142.35444336 45.9203125 -143.12060547 46.265625 C-145 47 -145 47 -147 47 C-131.69037284 63.33026897 -110.90268707 72.01959991 -88.62109375 73.03125 C-63.47215961 72.81421497 -41.50164181 63.94635912 -23.3828125 46.4765625 C-10.83905194 33.47527876 -4.28251404 17.37377647 0 0 Z " fill="#000000" transform="translate(478,366)"/>
<path d="M0 0 C1.31154053 0.00684814 2.62308105 0.01369629 3.97436523 0.02075195 C13.9145426 0.1848949 22.78163535 1.27106654 32.1875 4.4375 C33.87746094 4.98083984 33.87746094 4.98083984 35.6015625 5.53515625 C49.85716679 10.55353723 65.22252219 19.30909846 75.2734375 30.828125 C77.0607741 32.6863785 77.0607741 32.6863785 79.4609375 32.41015625 C83.74514839 30.8818346 87.76110535 28.88683655 91.8359375 26.87695312 C96.88656509 24.4375 96.88656509 24.4375 100.1875 24.4375 C99.63918235 32.26649141 99.08747496 40.09523874 98.53344727 47.92382812 C98.34525596 50.58521744 98.15831511 53.24668617 97.97192383 55.90820312 C97.703368 59.74103192 97.43202606 63.57365502 97.16015625 67.40625 C97.0366555 69.18171204 97.0366555 69.18171204 96.91065979 70.99304199 C96.49335481 76.83767548 95.98787324 82.63245833 95.1875 88.4375 C90.34334774 86.803897 86.4407578 84.10050994 82.25 81.25 C81.4772876 80.72970215 80.7045752 80.2094043 79.90844727 79.67333984 C77.33052323 77.93428236 74.75832927 76.1870273 72.1875 74.4375 C71.24874023 73.79893066 70.30998047 73.16036133 69.34277344 72.50244141 C65.52244713 69.90198128 61.70313762 67.30008197 57.88891602 64.69067383 C57.01678467 64.09407959 56.14465332 63.49748535 55.24609375 62.8828125 C54.40675293 62.30692383 53.56741211 61.73103516 52.70263672 61.13769531 C50.9932815 59.98219641 49.27025504 58.84672061 47.53564453 57.72949219 C46.29790283 56.93140137 46.29790283 56.93140137 45.03515625 56.1171875 C44.29402588 55.64780762 43.55289551 55.17842773 42.78930664 54.69482422 C42.26071045 54.27990723 41.73211426 53.86499023 41.1875 53.4375 C41.1875 52.7775 41.1875 52.1175 41.1875 51.4375 C44.14314708 50.09815284 47.1024378 48.76705753 50.0625 47.4375 C50.90425781 47.0559375 51.74601563 46.674375 52.61328125 46.28125 C53.82177734 45.73984375 53.82177734 45.73984375 55.0546875 45.1875 C55.79831543 44.85234375 56.54194336 44.5171875 57.30810547 44.171875 C59.1875 43.4375 59.1875 43.4375 61.1875 43.4375 C45.86905162 27.09782173 25.10220511 18.44184063 2.81640625 17.40234375 C-20.07134154 17.62407651 -41.76057442 24.86152378 -58.8125 40.4375 C-59.81603516 41.30375 -59.81603516 41.30375 -60.83984375 42.1875 C-74.40944409 54.65541001 -81.63848417 71.82608233 -85.8125 89.4375 C-87.8961309 89.29598172 -89.97939938 89.14912064 -92.0625 89 C-93.80273438 88.87818359 -93.80273438 88.87818359 -95.578125 88.75390625 C-98.12227376 88.50502213 -100.37203248 88.15635058 -102.8125 87.4375 C-99.98891157 61.73310882 -85.61224152 38.6287966 -65.94360352 22.27929688 C-47.09413642 7.38397237 -23.91172541 -0.19319796 0 0 Z " fill="#000000" transform="translate(391.8125,247.5625)"/>
<path d="M0 0 C58.08 0 116.16 0 176 0 C176 5.28 176 10.56 176 16 C117.92 16 59.84 16 0 16 C0 10.72 0 5.44 0 0 Z " fill="#000000" transform="translate(48,232)"/>
<path d="M0 0 C47.52 0 95.04 0 144 0 C144 5.28 144 10.56 144 16 C96.48 16 48.96 16 0 16 C0 10.72 0 5.44 0 0 Z " fill="#000000" transform="translate(48,264)"/>
</svg>
