<svg width="16" height="13" viewBox="0 0 16 13" fill="none" xmlns="http://www.w3.org/2000/svg">
<path d="M12.1327 6.06689C11.2132 6.06689 10.3315 6.43223 9.68143 7.08231C9.03135 7.7324 8.66602 8.61434 8.66602 9.53356C8.66602 10.4528 9.03135 11.3347 9.68143 11.9848C10.3315 12.6349 11.2135 13.0002 12.1327 13.0002C13.0519 13.0002 13.9338 12.6349 14.5839 11.9848C15.234 11.3347 15.5993 10.4528 15.5993 9.53356C15.5983 8.61434 15.2329 7.73322 14.5828 7.08341C13.933 6.43332 13.0516 6.06799 12.1327 6.06689ZM13.5458 10.9466C13.4995 10.993 13.4364 11.0193 13.3706 11.0193C13.3049 11.0193 13.2421 10.9932 13.1955 10.9466L11.9573 9.70842C11.9343 9.68539 11.9159 9.65799 11.9036 9.62784C11.8912 9.59797 11.8849 9.5659 11.8847 9.53356V7.30485C11.8847 7.21633 11.9318 7.13466 12.0085 7.09053C12.0853 7.04641 12.1795 7.04641 12.2563 7.09053C12.333 7.13466 12.3802 7.2166 12.3802 7.30485V9.43079L13.5458 10.5964C13.5921 10.643 13.6184 10.7057 13.6184 10.7715C13.6184 10.8373 13.5924 10.9001 13.5458 10.9466Z" fill="#0051BF"/>
<path d="M12.3808 0H8.8455V3.89995C8.8455 4.05982 8.74869 4.2067 8.59307 4.28209C8.5228 4.31653 8.44499 4.33343 8.36754 4.33343C8.27468 4.33343 8.18181 4.30906 8.10222 4.26064L6.93298 3.55422L5.76373 4.26064C5.61709 4.34902 5.42813 4.35747 5.27323 4.28209C5.11798 4.2067 5.02081 4.05982 5.02081 3.89995V0H1.48548C0.66655 0 0 0.583271 0 1.29977V10.8336C0 11.5501 0.66655 12.1333 1.48548 12.1333H8.21122C7.89318 11.4834 7.7243 10.7748 7.7243 10.0501C7.7243 8.68765 8.32129 7.38073 9.38476 6.41728C10.4479 5.45383 11.89 4.91247 13.3934 4.91247C13.5519 4.91247 13.71 4.91865 13.8667 4.93099V1.29977C13.8667 0.583271 13.2001 0 12.3808 0ZM5.97672 0V3.0902L6.66765 2.67265C6.74796 2.62423 6.84011 2.59986 6.93298 2.59986C7.02584 2.59986 7.11799 2.62423 7.1983 2.67265L7.88924 3.0902V0H5.97672Z" fill="#0051BF" fill-opacity="0.6"/>
</svg>
