<svg id="Flag_of_India" xmlns="http://www.w3.org/2000/svg" width="15" height="10" viewBox="0 0 15 10">
  <rect id="Rectangle_6488" data-name="Rectangle 6488" width="15" height="6.667" rx="1" fill="#f93"/>
  <rect id="Rectangle_6489" data-name="Rectangle 6489" width="15" height="3.333" transform="translate(0 3.333)" fill="#fff"/>
  <path id="Rectangle_6490" data-name="Rectangle 6490" d="M0,0H15a0,0,0,0,1,0,0V2.333a1,1,0,0,1-1,1H1a1,1,0,0,1-1-1V0A0,0,0,0,1,0,0Z" transform="translate(0 6.667)" fill="#128807"/>
  <g id="Group_761" data-name="Group 761" transform="translate(7.5 5)">
    <circle id="Ellipse_36" data-name="Ellipse 36" cx="1.333" cy="1.333" r="1.333" transform="translate(-1.333 -1.333)" fill="#008"/>
    <circle id="Ellipse_37" data-name="Ellipse 37" cx="1.167" cy="1.167" r="1.167" transform="translate(-1.167 -1.167)" fill="#fff"/>
    <circle id="Ellipse_38" data-name="Ellipse 38" cx="0.233" cy="0.233" r="0.233" transform="translate(-0.233 -0.233)" fill="#008"/>
    <g id="d">
      <g id="c">
        <g id="b">
          <g id="a">
            <circle id="Ellipse_39" data-name="Ellipse 39" cx="0.058" cy="0.058" r="0.058" transform="matrix(0.991, 0.131, -0.131, 0.991, 1.106, 0.087)" fill="#008"/>
            <path id="Path_634" data-name="Path 634" d="M0,1.167l.04-.7L0,.133-.04.467Z" fill="#008"/>
          </g>
          <g id="Group_738" data-name="Group 738" transform="matrix(0.966, 0.259, -0.259, 0.966, 0, 0)">
            <circle id="Ellipse_40" data-name="Ellipse 40" cx="0.058" cy="0.058" r="0.058" transform="matrix(0.991, 0.131, -0.131, 0.991, 1.106, 0.087)" fill="#008"/>
            <path id="Path_635" data-name="Path 635" d="M0,1.167l.04-.7L0,.133-.04.467Z" fill="#008"/>
          </g>
        </g>
        <g id="Group_740" data-name="Group 740" transform="matrix(0.866, 0.5, -0.5, 0.866, 0, 0)">
          <g id="a-2" data-name="a">
            <circle id="Ellipse_41" data-name="Ellipse 41" cx="0.058" cy="0.058" r="0.058" transform="matrix(0.991, 0.131, -0.131, 0.991, 1.106, 0.087)" fill="#008"/>
            <path id="Path_636" data-name="Path 636" d="M0,1.167l.04-.7L0,.133-.04.467Z" fill="#008"/>
          </g>
          <g id="Group_739" data-name="Group 739" transform="matrix(0.966, 0.259, -0.259, 0.966, 0, 0)">
            <circle id="Ellipse_42" data-name="Ellipse 42" cx="0.058" cy="0.058" r="0.058" transform="matrix(0.991, 0.131, -0.131, 0.991, 1.106, 0.087)" fill="#008"/>
            <path id="Path_637" data-name="Path 637" d="M0,1.167l.04-.7L0,.133-.04.467Z" fill="#008"/>
          </g>
        </g>
      </g>
      <g id="Group_744" data-name="Group 744" transform="matrix(0.5, 0.866, -0.866, 0.5, 0, 0)">
        <g id="b-2" data-name="b">
          <g id="a-3" data-name="a">
            <circle id="Ellipse_43" data-name="Ellipse 43" cx="0.058" cy="0.058" r="0.058" transform="matrix(0.991, 0.131, -0.131, 0.991, 1.106, 0.087)" fill="#008"/>
            <path id="Path_638" data-name="Path 638" d="M0,1.167l.04-.7L0,.133-.04.467Z" fill="#008"/>
          </g>
          <g id="Group_741" data-name="Group 741" transform="matrix(0.966, 0.259, -0.259, 0.966, 0, 0)">
            <circle id="Ellipse_44" data-name="Ellipse 44" cx="0.058" cy="0.058" r="0.058" transform="matrix(0.991, 0.131, -0.131, 0.991, 1.106, 0.087)" fill="#008"/>
            <path id="Path_639" data-name="Path 639" d="M0,1.167l.04-.7L0,.133-.04.467Z" fill="#008"/>
          </g>
        </g>
        <g id="Group_743" data-name="Group 743" transform="matrix(0.866, 0.5, -0.5, 0.866, 0, 0)">
          <g id="a-4" data-name="a">
            <circle id="Ellipse_45" data-name="Ellipse 45" cx="0.058" cy="0.058" r="0.058" transform="matrix(0.991, 0.131, -0.131, 0.991, 1.106, 0.087)" fill="#008"/>
            <path id="Path_640" data-name="Path 640" d="M0,1.167l.04-.7L0,.133-.04.467Z" fill="#008"/>
          </g>
          <g id="Group_742" data-name="Group 742" transform="matrix(0.966, 0.259, -0.259, 0.966, 0, 0)">
            <circle id="Ellipse_46" data-name="Ellipse 46" cx="0.058" cy="0.058" r="0.058" transform="matrix(0.991, 0.131, -0.131, 0.991, 1.106, 0.087)" fill="#008"/>
            <path id="Path_641" data-name="Path 641" d="M0,1.167l.04-.7L0,.133-.04.467Z" fill="#008"/>
          </g>
        </g>
      </g>
    </g>
    <g id="Group_752" data-name="Group 752" transform="matrix(-0.5, 0.866, -0.866, -0.5, 0, 0)">
      <g id="c-2" data-name="c">
        <g id="b-3" data-name="b">
          <g id="a-5" data-name="a">
            <circle id="Ellipse_47" data-name="Ellipse 47" cx="0.058" cy="0.058" r="0.058" transform="matrix(0.991, 0.131, -0.131, 0.991, 1.106, 0.087)" fill="#008"/>
            <path id="Path_642" data-name="Path 642" d="M0,1.167l.04-.7L0,.133-.04.467Z" fill="#008"/>
          </g>
          <g id="Group_745" data-name="Group 745" transform="matrix(0.966, 0.259, -0.259, 0.966, 0, 0)">
            <circle id="Ellipse_48" data-name="Ellipse 48" cx="0.058" cy="0.058" r="0.058" transform="matrix(0.991, 0.131, -0.131, 0.991, 1.106, 0.087)" fill="#008"/>
            <path id="Path_643" data-name="Path 643" d="M0,1.167l.04-.7L0,.133-.04.467Z" fill="#008"/>
          </g>
        </g>
        <g id="Group_747" data-name="Group 747" transform="matrix(0.866, 0.5, -0.5, 0.866, 0, 0)">
          <g id="a-6" data-name="a">
            <circle id="Ellipse_49" data-name="Ellipse 49" cx="0.058" cy="0.058" r="0.058" transform="matrix(0.991, 0.131, -0.131, 0.991, 1.106, 0.087)" fill="#008"/>
            <path id="Path_644" data-name="Path 644" d="M0,1.167l.04-.7L0,.133-.04.467Z" fill="#008"/>
          </g>
          <g id="Group_746" data-name="Group 746" transform="matrix(0.966, 0.259, -0.259, 0.966, 0, 0)">
            <circle id="Ellipse_50" data-name="Ellipse 50" cx="0.058" cy="0.058" r="0.058" transform="matrix(0.991, 0.131, -0.131, 0.991, 1.106, 0.087)" fill="#008"/>
            <path id="Path_645" data-name="Path 645" d="M0,1.167l.04-.7L0,.133-.04.467Z" fill="#008"/>
          </g>
        </g>
      </g>
      <g id="Group_751" data-name="Group 751" transform="matrix(0.5, 0.866, -0.866, 0.5, 0, 0)">
        <g id="b-4" data-name="b">
          <g id="a-7" data-name="a">
            <circle id="Ellipse_51" data-name="Ellipse 51" cx="0.058" cy="0.058" r="0.058" transform="matrix(0.991, 0.131, -0.131, 0.991, 1.106, 0.087)" fill="#008"/>
            <path id="Path_646" data-name="Path 646" d="M0,1.167l.04-.7L0,.133-.04.467Z" fill="#008"/>
          </g>
          <g id="Group_748" data-name="Group 748" transform="matrix(0.966, 0.259, -0.259, 0.966, 0, 0)">
            <circle id="Ellipse_52" data-name="Ellipse 52" cx="0.058" cy="0.058" r="0.058" transform="matrix(0.991, 0.131, -0.131, 0.991, 1.106, 0.087)" fill="#008"/>
            <path id="Path_647" data-name="Path 647" d="M0,1.167l.04-.7L0,.133-.04.467Z" fill="#008"/>
          </g>
        </g>
        <g id="Group_750" data-name="Group 750" transform="matrix(0.866, 0.5, -0.5, 0.866, 0, 0)">
          <g id="a-8" data-name="a">
            <circle id="Ellipse_53" data-name="Ellipse 53" cx="0.058" cy="0.058" r="0.058" transform="matrix(0.991, 0.131, -0.131, 0.991, 1.106, 0.087)" fill="#008"/>
            <path id="Path_648" data-name="Path 648" d="M0,1.167l.04-.7L0,.133-.04.467Z" fill="#008"/>
          </g>
          <g id="Group_749" data-name="Group 749" transform="matrix(0.966, 0.259, -0.259, 0.966, 0, 0)">
            <circle id="Ellipse_54" data-name="Ellipse 54" cx="0.058" cy="0.058" r="0.058" transform="matrix(0.991, 0.131, -0.131, 0.991, 1.106, 0.087)" fill="#008"/>
            <path id="Path_649" data-name="Path 649" d="M0,1.167l.04-.7L0,.133-.04.467Z" fill="#008"/>
          </g>
        </g>
      </g>
    </g>
    <g id="Group_760" data-name="Group 760" transform="matrix(-0.5, -0.866, 0.866, -0.5, 0, 0)">
      <g id="c-3" data-name="c">
        <g id="b-5" data-name="b">
          <g id="a-9" data-name="a">
            <circle id="Ellipse_55" data-name="Ellipse 55" cx="0.058" cy="0.058" r="0.058" transform="matrix(0.991, 0.131, -0.131, 0.991, 1.106, 0.087)" fill="#008"/>
            <path id="Path_650" data-name="Path 650" d="M0,1.167l.04-.7L0,.133-.04.467Z" fill="#008"/>
          </g>
          <g id="Group_753" data-name="Group 753" transform="matrix(0.966, 0.259, -0.259, 0.966, 0, 0)">
            <circle id="Ellipse_56" data-name="Ellipse 56" cx="0.058" cy="0.058" r="0.058" transform="matrix(0.991, 0.131, -0.131, 0.991, 1.106, 0.087)" fill="#008"/>
            <path id="Path_651" data-name="Path 651" d="M0,1.167l.04-.7L0,.133-.04.467Z" fill="#008"/>
          </g>
        </g>
        <g id="Group_755" data-name="Group 755" transform="matrix(0.866, 0.5, -0.5, 0.866, 0, 0)">
          <g id="a-10" data-name="a">
            <circle id="Ellipse_57" data-name="Ellipse 57" cx="0.058" cy="0.058" r="0.058" transform="matrix(0.991, 0.131, -0.131, 0.991, 1.106, 0.087)" fill="#008"/>
            <path id="Path_652" data-name="Path 652" d="M0,1.167l.04-.7L0,.133-.04.467Z" fill="#008"/>
          </g>
          <g id="Group_754" data-name="Group 754" transform="matrix(0.966, 0.259, -0.259, 0.966, 0, 0)">
            <circle id="Ellipse_58" data-name="Ellipse 58" cx="0.058" cy="0.058" r="0.058" transform="matrix(0.991, 0.131, -0.131, 0.991, 1.106, 0.087)" fill="#008"/>
            <path id="Path_653" data-name="Path 653" d="M0,1.167l.04-.7L0,.133-.04.467Z" fill="#008"/>
          </g>
        </g>
      </g>
      <g id="Group_759" data-name="Group 759" transform="matrix(0.5, 0.866, -0.866, 0.5, 0, 0)">
        <g id="b-6" data-name="b">
          <g id="a-11" data-name="a">
            <circle id="Ellipse_59" data-name="Ellipse 59" cx="0.058" cy="0.058" r="0.058" transform="matrix(0.991, 0.131, -0.131, 0.991, 1.106, 0.087)" fill="#008"/>
            <path id="Path_654" data-name="Path 654" d="M0,1.167l.04-.7L0,.133-.04.467Z" fill="#008"/>
          </g>
          <g id="Group_756" data-name="Group 756" transform="matrix(0.966, 0.259, -0.259, 0.966, 0, 0)">
            <circle id="Ellipse_60" data-name="Ellipse 60" cx="0.058" cy="0.058" r="0.058" transform="matrix(0.991, 0.131, -0.131, 0.991, 1.106, 0.087)" fill="#008"/>
            <path id="Path_655" data-name="Path 655" d="M0,1.167l.04-.7L0,.133-.04.467Z" fill="#008"/>
          </g>
        </g>
        <g id="Group_758" data-name="Group 758" transform="matrix(0.866, 0.5, -0.5, 0.866, 0, 0)">
          <g id="a-12" data-name="a">
            <circle id="Ellipse_61" data-name="Ellipse 61" cx="0.058" cy="0.058" r="0.058" transform="matrix(0.991, 0.131, -0.131, 0.991, 1.106, 0.087)" fill="#008"/>
            <path id="Path_656" data-name="Path 656" d="M0,1.167l.04-.7L0,.133-.04.467Z" fill="#008"/>
          </g>
          <g id="Group_757" data-name="Group 757" transform="matrix(0.966, 0.259, -0.259, 0.966, 0, 0)">
            <circle id="Ellipse_62" data-name="Ellipse 62" cx="0.058" cy="0.058" r="0.058" transform="matrix(0.991, 0.131, -0.131, 0.991, 1.106, 0.087)" fill="#008"/>
            <path id="Path_657" data-name="Path 657" d="M0,1.167l.04-.7L0,.133-.04.467Z" fill="#008"/>
          </g>
        </g>
      </g>
    </g>
  </g>
</svg>
