<?xml version="1.0" encoding="UTF-8"?>
<svg version="1.1" xmlns="http://www.w3.org/2000/svg" width="512" height="512">
<path d="M0 0 C0.94545504 -0.00453111 1.89091008 -0.00906223 2.86501527 -0.01373065 C6.02922101 -0.02637847 9.19325471 -0.02475401 12.35748291 -0.02310181 C14.62783021 -0.02908685 16.89817548 -0.03589234 19.16851807 -0.04345703 C25.33393772 -0.06112758 31.49930185 -0.06581289 37.66474438 -0.0670886 C41.51791905 -0.06851026 45.37107962 -0.07278017 49.22425079 -0.07808304 C61.97646423 -0.0956325 74.72863143 -0.10492286 87.480854 -0.10342209 C88.51129898 -0.10330222 88.51129898 -0.10330222 89.56256104 -0.10317993 C90.59427081 -0.10305729 90.59427081 -0.10305729 91.6468232 -0.10293217 C102.78803585 -0.10211966 113.92911319 -0.12124981 125.07028672 -0.14945666 C136.5220877 -0.1782201 147.97379535 -0.19162919 159.42563844 -0.19026911 C165.85008187 -0.18975955 172.27437217 -0.19543995 178.69878387 -0.21662521 C184.74318392 -0.23601299 190.78728486 -0.23612806 196.83169556 -0.22159195 C199.04638354 -0.21950339 201.26109027 -0.22420751 203.47574615 -0.23631287 C206.50696642 -0.25180444 209.53716038 -0.24243086 212.56835938 -0.22705078 C213.43783825 -0.23733791 214.30731712 -0.24762503 215.20314384 -0.25822389 C223.8435349 -0.16182065 231.64003483 2.61789156 238.00689697 8.56430054 C244.28087109 15.54249624 246.84837737 22.87219117 246.79541588 32.22703266 C246.79892195 33.01466475 246.80242803 33.80229684 246.80604035 34.61379656 C246.81535572 37.25714302 246.81043068 39.90026924 246.80557251 42.54362488 C246.8093087 44.45629817 246.81391009 46.36896994 246.81930315 48.28163928 C246.83155241 53.54105538 246.83127042 58.80040796 246.8289144 64.05983508 C246.82850673 69.73072139 246.83954067 75.4015872 246.84902954 81.07246399 C246.8656509 92.18396603 246.87113959 103.29544685 246.8722543 114.40696029 C246.8732042 123.43754109 246.8773116 132.46811488 246.88365555 141.49869347 C246.89840385 162.92851852 246.91070495 184.35833666 246.90965843 205.788167 C246.9096117 206.81615315 246.9096117 206.81615315 246.90956402 207.86490669 C246.9093978 211.33840894 246.90919972 214.81191118 246.9089946 218.28541342 C246.90895471 218.97526261 246.90891482 219.6651118 246.90887372 220.37586551 C246.90879285 221.77090863 246.90870925 223.16595175 246.90862294 224.56099487 C246.90739741 246.26598097 246.92241104 267.97090458 246.94976807 289.6758728 C246.98049141 314.06171152 246.99767508 338.44749875 246.99584162 362.8333599 C246.9951772 375.74504826 247.00069223 388.65666616 247.02219772 401.56833839 C247.04038917 412.56084871 247.04477355 423.55325661 247.03117888 434.54577545 C247.02463908 440.1549669 247.02456868 445.76396174 247.04188538 451.37313461 C247.05757611 456.50841038 247.05479325 461.643333 247.03731711 466.77859994 C247.03423842 468.63590512 247.03791222 470.4932364 247.04903726 472.35051081 C247.14822957 490.08539958 247.14822957 490.08539958 242.53814697 497.26742554 C242.06892822 498.07695679 241.59970947 498.88648804 241.11627197 499.72055054 C236.20823546 506.36083522 230.50040786 510.0720306 222.53814697 512.26742554 C219.38088123 512.55445959 216.2382202 512.54601494 213.06956482 512.53485107 C212.12340421 512.53938219 211.17724361 512.5439133 210.20241147 512.54858172 C207.03587179 512.56122952 203.86950402 512.55960509 200.70294189 512.55795288 C198.43097208 512.56393788 196.15900429 512.57074336 193.88703918 512.57830811 C187.71755458 512.59597805 181.54812546 512.60066391 175.378618 512.60193968 C171.52344101 512.60336126 167.66827812 512.60763099 163.81310463 512.61293411 C151.05582553 512.63048272 138.29859266 512.63977396 125.54130443 512.63827316 C124.51046537 512.6381533 124.51046537 512.6381533 123.45880127 512.63803101 C122.42669803 512.63790836 122.42669803 512.63790836 121.37374423 512.63778324 C110.22538954 512.63697053 99.07717002 512.65610606 87.92885443 512.68430774 C76.47140822 512.71306185 65.01405527 512.72648069 53.55656701 512.72512019 C47.12824313 512.72461042 40.70007223 512.73030223 34.27178001 512.75147629 C28.22492075 512.77085016 22.17836056 512.77098866 16.13149071 512.75644302 C13.91477013 512.7543528 11.69803088 512.75906845 9.48134232 512.77116394 C6.44977125 512.78663179 3.41922943 512.77729754 0.38768005 512.76190186 C-0.48471166 512.77218898 -1.35710337 512.78247611 -2.2559312 512.79307497 C-11.58800937 512.68870229 -19.72897706 508.67688824 -26.46185303 502.26742554 C-31.7583698 495.54595755 -33.7674635 488.84605361 -33.71912193 480.31061172 C-33.72438104 479.12961299 -33.72438104 479.12961299 -33.7297464 477.92475569 C-33.73906175 475.28241852 -33.73413673 472.64030167 -33.72927856 469.99795532 C-33.73301476 468.08599472 -33.73761615 466.17403565 -33.74300921 464.262079 C-33.75525849 459.00459351 -33.75497647 453.74717156 -33.75262046 448.48967505 C-33.75221278 442.82081461 -33.76324678 437.15197469 -33.7727356 431.48312378 C-33.78935723 420.37529674 -33.79484567 409.26749093 -33.79596035 398.1596525 C-33.79691029 389.13146397 -33.80101787 380.10328245 -33.8073616 371.07509613 C-33.82211027 349.64956229 -33.83441099 328.22403537 -33.83336449 306.79849625 C-33.83333333 306.11329737 -33.83330217 305.42809849 -33.83327007 304.722136 C-33.83310386 301.24928172 -33.83290577 297.77642744 -33.83270065 294.30357316 C-33.83266076 293.61385517 -33.83262087 292.92413718 -33.83257977 292.21351864 C-33.8324989 290.81874045 -33.8324153 289.42396227 -33.83232899 288.02918408 C-33.83110361 266.33090183 -33.84611433 244.63268209 -33.87347412 222.93441772 C-33.90420224 198.55479535 -33.92138083 174.17522449 -33.91954768 149.79557967 C-33.9188834 136.88777181 -33.92439244 123.98003445 -33.94590378 111.07224274 C-33.96410135 100.08232285 -33.96847459 89.09250542 -33.95488493 78.102577 C-33.9483481 72.49528689 -33.94826407 66.88819343 -33.96559143 61.28092194 C-33.98129532 56.14621072 -33.97848575 51.0118525 -33.96102317 45.87715003 C-33.95794738 44.02117294 -33.96160742 42.16516968 -33.97274332 40.30922344 C-34.03927187 28.43330981 -33.69466742 17.93147428 -25.16497803 8.79867554 C-17.62657468 2.02102849 -9.93560163 -0.03503247 0 0 Z M-13.39935303 22.01742554 C-17.04772735 27.76637902 -17.75847711 33.41063376 -17.71632862 40.10020256 C-17.7195351 40.86197451 -17.72274158 41.62374647 -17.72604522 42.40860242 C-17.7343382 44.95796464 -17.72842341 47.5070915 -17.72254944 50.05645752 C-17.72557044 51.90399681 -17.72945966 53.75153484 -17.73414201 55.59907067 C-17.74443734 60.6738063 -17.74223626 65.7484714 -17.73796141 70.82321286 C-17.73549698 76.29707685 -17.74450483 81.77092374 -17.7519989 87.24478149 C-17.76475577 97.96779179 -17.76653836 108.69077706 -17.76419864 119.41379367 C-17.76241643 128.12875148 -17.76416302 136.84370169 -17.76842308 145.5586586 C-17.76901827 146.7984735 -17.76961346 148.0382884 -17.77022668 149.31567345 C-17.77143842 151.83426713 -17.77265255 154.35286081 -17.77386906 156.87145449 C-17.78165754 173.78492871 -17.78557452 190.69839981 -17.78155231 207.61187553 C-17.78131775 208.60387401 -17.78131775 208.60387401 -17.78107845 209.61591286 C-17.78027267 212.9677595 -17.7794269 216.31960612 -17.77856515 219.67145275 C-17.77839406 220.33713256 -17.77822297 221.00281238 -17.7780467 221.68866431 C-17.77770004 223.03483033 -17.77735151 224.38099635 -17.77700111 225.72716237 C-17.77164386 246.67370554 -17.77957468 267.62020662 -17.79803467 288.56674194 C-17.81875359 312.104017 -17.8294465 335.64127193 -17.82545918 359.17855752 C-17.82354553 371.6397329 -17.82605066 384.10086993 -17.84017372 396.56203842 C-17.85207492 407.17023665 -17.85350656 417.77837292 -17.84138355 428.38657199 C-17.83548605 433.79928811 -17.83441957 439.21189082 -17.84638596 444.62459946 C-17.8572147 449.58029644 -17.85417721 454.53578492 -17.84012427 459.49147202 C-17.83746905 461.28347017 -17.83986969 463.07548449 -17.84786014 464.86746679 C-18.43172665 478.60393474 -18.43172665 478.60393474 -13.18694764 490.82951343 C-7.31539698 496.30428215 -0.04446333 496.56324462 7.51956177 496.52812195 C8.40123996 496.5319475 9.28291815 496.53577304 10.19131386 496.53971452 C13.13364642 496.54999967 16.0757822 496.54606089 19.01812744 496.54208374 C21.13261088 496.5464327 23.24709274 496.55161646 25.36157227 496.55757141 C31.0971341 496.570953 36.83263 496.57154099 42.5682044 496.56900811 C47.35942557 496.56793781 52.15063342 496.57282331 56.94185174 496.57761353 C68.24690951 496.58870588 79.55193405 496.58914769 90.85699463 496.58309937 C102.51256467 496.57705932 114.16801401 496.58937206 125.82356346 496.61066943 C135.83735831 496.62829293 145.85111476 496.63428559 155.86492455 496.63103169 C161.84272108 496.62921985 167.8204315 496.63184521 173.79821396 496.64574623 C179.42071282 496.658332 185.0430237 496.65637323 190.66551971 496.64333534 C192.72581928 496.64097164 194.78613211 496.64369683 196.84641647 496.65195847 C199.66541619 496.66244503 202.48378735 496.65430984 205.30276489 496.64164734 C206.11221931 496.64902162 206.92167373 496.65639591 207.75565708 496.66399366 C213.74630542 496.6076347 220.30517898 495.84916514 225.13463962 491.99252015 C230.20419579 486.41605929 230.83811567 479.65505416 230.79262257 472.43464851 C230.79743228 471.29199059 230.79743228 471.29199059 230.80233917 470.12624866 C230.81063215 467.57688643 230.80471735 465.02775957 230.79884338 462.47839355 C230.80186438 460.63085427 230.80575361 458.78331623 230.81043595 456.93578041 C230.82073128 451.86104477 230.81853021 446.78637967 230.81425536 441.71163821 C230.81179093 436.23777422 230.82079877 430.76392733 230.82829285 425.29006958 C230.84104972 414.56705928 230.84283231 403.84407401 230.84049258 393.12105741 C230.83871038 384.40609959 230.84045697 375.69114938 230.84471703 366.97619247 C230.84560981 365.11647012 230.84560981 365.11647012 230.84652063 363.21917763 C230.84773237 360.70058394 230.8489465 358.18199026 230.85016301 355.66339658 C230.85795148 338.74992236 230.86186846 321.83645126 230.85784626 304.92297554 C230.8576117 303.93097706 230.8576117 303.93097706 230.85737239 302.91893821 C230.85656662 299.56709158 230.85572085 296.21524495 230.85485909 292.86339833 C230.854688 292.19771851 230.85451692 291.5320387 230.85434064 290.84618677 C230.85399399 289.50002075 230.85364546 288.15385472 230.85329506 286.8076887 C230.84793781 265.86114553 230.85586863 244.91464445 230.87432861 223.96810913 C230.89504753 200.43083407 230.90574045 176.89357915 230.90175313 153.35629356 C230.89983948 140.89511818 230.90234461 128.43398115 230.91646767 115.97281265 C230.92836886 105.36461442 230.9298005 94.75647815 230.9176775 84.14827909 C230.91178 78.73556297 230.91071351 73.32296025 230.9226799 67.91025162 C230.93350865 62.95455464 230.93047115 57.99906616 230.91641822 53.04337905 C230.913763 51.25138091 230.91616364 49.45936658 230.92415408 47.66738428 C231.5080206 33.93091633 231.5080206 33.93091633 226.26324159 21.70533764 C220.39169093 16.23056893 213.12075727 15.97160645 205.55673218 16.00672913 C204.67505399 16.00290358 203.79337579 15.99907803 202.88498008 15.99513656 C199.94264753 15.9848514 197.00051175 15.98879018 194.0581665 15.99276733 C191.94368307 15.98841837 189.8292012 15.98323461 187.71472168 15.97727966 C181.97915985 15.96389807 176.24366394 15.96331009 170.50808954 15.96584296 C165.71686838 15.96691327 160.92566052 15.96202776 156.13444221 15.95723754 C144.82938444 15.9461452 133.5243599 15.94570339 122.21929932 15.95175171 C110.56372927 15.95779176 98.90827994 15.94547901 87.25273049 15.92418164 C77.23893564 15.90655814 67.22517918 15.90056548 57.2113694 15.90381938 C51.23357287 15.90563122 45.25586245 15.90300587 39.27807999 15.88910484 C33.65558112 15.87651907 28.03327025 15.87847785 22.41077423 15.89151573 C20.35047466 15.89387943 18.29016183 15.89115425 16.22987747 15.88289261 C13.41087776 15.87240604 10.59250659 15.88054123 7.77352905 15.89320374 C6.55934742 15.88214231 6.55934742 15.88214231 5.32063687 15.87085742 C-1.3521542 15.93363386 -8.69676136 16.84462194 -13.39935303 22.01742554 Z " fill="#000000" transform="translate(33.46185302734375,-0.267425537109375)"/>
<path d="M0 0 C14.01721588 9.33350638 23.97085468 24.20156056 27.42163086 40.69335938 C29.40151238 53.31219606 29.11121157 67.50101921 23.81640625 79.20947266 C23.34203125 80.28068359 22.86765625 81.35189453 22.37890625 82.45556641 C14.34856639 98.84440906 0.98598798 110.03119998 -16.18359375 116.20947266 C-33.60183722 121.26582178 -52.77725401 119.2495237 -68.60131836 110.66967773 C-84.04490388 101.72907346 -94.07252256 87.56326684 -99.30078125 70.58056641 C-103.37904977 53.39198897 -100.28313242 34.97858889 -91.54296875 19.89306641 C-81.91142203 4.27643418 -67.59470783 -4.32234663 -50.30664062 -9.3347168 C-32.96980297 -13.05687364 -14.8364328 -9.14887544 0 0 Z M-72.58984375 23.27197266 C-82.01294409 34.72750641 -84.25694514 46.62635643 -83.39501953 61.07519531 C-82.19643271 73.17455555 -75.26471978 82.90051304 -66.74609375 91.13134766 C-55.12791493 100.55340731 -41.60758259 102.50020991 -27.18359375 101.20947266 C-15.01153854 98.83443749 -4.93392898 91.766277 2.81640625 82.20947266 C10.54271369 69.53040403 12.96954667 56.24431729 10.12890625 41.68603516 C6.58416792 30.19517507 -0.82857391 19.69143787 -11.18359375 13.38134766 C-32.73169211 2.284077 -55.69231374 5.41797869 -72.58984375 23.27197266 Z " fill="#000000" transform="translate(176.18359375,201.79052734375)"/>
<path d="M0 0 C0.65396381 -0.00623996 1.30792763 -0.01247993 1.98170853 -0.01890898 C4.17144147 -0.03485478 6.36006364 -0.02222988 8.54980469 -0.00964355 C10.12024586 -0.01506402 11.69068195 -0.02218626 13.2611084 -0.03088379 C17.52559358 -0.04912925 21.78969196 -0.0420447 26.05418396 -0.02936745 C30.51529998 -0.01924606 34.9763827 -0.02863072 39.4375 -0.03491211 C46.92942252 -0.04219104 54.42118735 -0.03259441 61.91308594 -0.0135498 C70.57692221 0.00821946 79.24038198 0.00116826 87.90420914 -0.02085543 C95.34041697 -0.03900247 102.7765114 -0.04157117 110.21273422 -0.03110075 C114.65510989 -0.02486197 119.09730853 -0.02404068 123.53967285 -0.0372467 C127.71602519 -0.04879453 131.89189172 -0.04079938 136.06819153 -0.01766968 C137.6016611 -0.01237682 139.1351715 -0.01390626 140.66862488 -0.02272034 C142.76075646 -0.03363768 144.8513275 -0.01996166 146.94335938 0 C148.11437195 0.0015081 149.28538452 0.0030162 150.49188232 0.00457001 C154.08917438 0.61224534 155.26270263 1.66274731 157.47167969 4.50793457 C158.00292969 6.50793457 158.00292969 6.50793457 157.97167969 8.50793457 C157.98714844 9.49793457 157.98714844 9.49793457 158.00292969 10.50793457 C157.21810175 13.46258094 155.84242519 14.60445759 153.47167969 16.50793457 C150.49188232 17.01129913 150.49188232 17.01129913 146.94335938 17.01586914 C146.28939556 17.0221091 145.63543175 17.02834907 144.96165085 17.03477812 C142.7719179 17.05072392 140.58329574 17.03809902 138.39355469 17.0255127 C136.82311351 17.03093316 135.25267742 17.0380554 133.68225098 17.04675293 C129.4177658 17.0649984 125.15366741 17.05791384 120.88917542 17.04523659 C116.4280594 17.0351152 111.96697668 17.04449987 107.50585938 17.05078125 C100.01393686 17.05806018 92.52217202 17.04846355 85.03027344 17.02941895 C76.36643716 17.00764968 67.70297739 17.01470089 59.03915024 17.03672457 C51.60294241 17.05487161 44.16684797 17.05744031 36.73062515 17.04696989 C32.28824949 17.04073111 27.84605084 17.03990982 23.40368652 17.05311584 C19.22733419 17.06466367 15.05146765 17.05666852 10.87516785 17.03353882 C9.34169827 17.02824596 7.80818787 17.0297754 6.2747345 17.03858948 C4.18260291 17.04950682 2.09203188 17.0358308 0 17.01586914 C-1.17101257 17.01436104 -2.34202515 17.01285294 -3.54852295 17.01129913 C-7.14581501 16.4036238 -8.31934325 15.35312183 -10.52832031 12.50793457 C-11.05957031 10.50793457 -11.05957031 10.50793457 -11.02832031 8.50793457 C-11.04378906 7.51793457 -11.04378906 7.51793457 -11.05957031 6.50793457 C-9.52954491 0.74783892 -5.33324865 0.00686849 0 0 Z " fill="#000000" transform="translate(66.5283203125,371.4920654296875)"/>
<path d="M0 0 C0.65396381 -0.00623996 1.30792763 -0.01247993 1.98170853 -0.01890898 C4.17144147 -0.03485478 6.36006364 -0.02222988 8.54980469 -0.00964355 C10.12024586 -0.01506402 11.69068195 -0.02218626 13.2611084 -0.03088379 C17.52559358 -0.04912925 21.78969196 -0.0420447 26.05418396 -0.02936745 C30.51529998 -0.01924606 34.9763827 -0.02863072 39.4375 -0.03491211 C46.92942252 -0.04219104 54.42118735 -0.03259441 61.91308594 -0.0135498 C70.57692221 0.00821946 79.24038198 0.00116826 87.90420914 -0.02085543 C95.34041697 -0.03900247 102.7765114 -0.04157117 110.21273422 -0.03110075 C114.65510989 -0.02486197 119.09730853 -0.02404068 123.53967285 -0.0372467 C127.71602519 -0.04879453 131.89189172 -0.04079938 136.06819153 -0.01766968 C137.6016611 -0.01237682 139.1351715 -0.01390626 140.66862488 -0.02272034 C142.76075646 -0.03363768 144.8513275 -0.01996166 146.94335938 0 C148.11437195 0.0015081 149.28538452 0.0030162 150.49188232 0.00457001 C154.08917438 0.61224534 155.26270263 1.66274731 157.47167969 4.50793457 C158.00292969 6.50793457 158.00292969 6.50793457 157.97167969 8.50793457 C157.98714844 9.49793457 157.98714844 9.49793457 158.00292969 10.50793457 C157.21810175 13.46258094 155.84242519 14.60445759 153.47167969 16.50793457 C150.49188232 17.01129913 150.49188232 17.01129913 146.94335938 17.01586914 C146.28939556 17.0221091 145.63543175 17.02834907 144.96165085 17.03477812 C142.7719179 17.05072392 140.58329574 17.03809902 138.39355469 17.0255127 C136.82311351 17.03093316 135.25267742 17.0380554 133.68225098 17.04675293 C129.4177658 17.0649984 125.15366741 17.05791384 120.88917542 17.04523659 C116.4280594 17.0351152 111.96697668 17.04449987 107.50585938 17.05078125 C100.01393686 17.05806018 92.52217202 17.04846355 85.03027344 17.02941895 C76.36643716 17.00764968 67.70297739 17.01470089 59.03915024 17.03672457 C51.60294241 17.05487161 44.16684797 17.05744031 36.73062515 17.04696989 C32.28824949 17.04073111 27.84605084 17.03990982 23.40368652 17.05311584 C19.22733419 17.06466367 15.05146765 17.05666852 10.87516785 17.03353882 C9.34169827 17.02824596 7.80818787 17.0297754 6.2747345 17.03858948 C4.18260291 17.04950682 2.09203188 17.0358308 0 17.01586914 C-1.17101257 17.01436104 -2.34202515 17.01285294 -3.54852295 17.01129913 C-7.14581501 16.4036238 -8.31934325 15.35312183 -10.52832031 12.50793457 C-11.05957031 10.50793457 -11.05957031 10.50793457 -11.02832031 8.50793457 C-11.04378906 7.51793457 -11.04378906 7.51793457 -11.05957031 6.50793457 C-9.52954491 0.74783892 -5.33324865 0.00686849 0 0 Z " fill="#000000" transform="translate(66.5283203125,91.4920654296875)"/>
<path d="M0 0 C0.87269531 -0.0038269 1.74539063 -0.00765381 2.64453125 -0.01159668 C4.48699092 -0.0143149 6.32948924 -0.00695994 8.171875 0.00976562 C10.99045934 0.03117752 13.80649485 0.00996199 16.625 -0.015625 C18.41667229 -0.01298171 20.20834299 -0.00785669 22 0 C22.84175781 -0.00809692 23.68351562 -0.01619385 24.55078125 -0.02453613 C28.13136419 0.03278396 30.39761762 0.18098442 33.52929688 2.00195312 C35.73374916 5.79314264 35.57275697 9.21617695 35.53125 13.53125 C35.5350769 14.40394531 35.53890381 15.27664063 35.54284668 16.17578125 C35.5455649 18.01824092 35.53820994 19.86073924 35.52148438 21.703125 C35.50007248 24.52170934 35.52128801 27.33774485 35.546875 30.15625 C35.54423171 31.94792229 35.53910669 33.73959299 35.53125 35.53125 C35.53934692 36.37300781 35.54744385 37.21476562 35.55578613 38.08203125 C35.49846604 41.66261419 35.35026558 43.92886762 33.52929688 47.06054688 C29.73810736 49.26499916 26.31507305 49.10400697 22 49.0625 C21.12730469 49.0663269 20.25460937 49.07015381 19.35546875 49.07409668 C17.51300908 49.0768149 15.67051076 49.06945994 13.828125 49.05273438 C11.00954066 49.03132248 8.19350515 49.05253801 5.375 49.078125 C3.58332771 49.07548171 1.79165701 49.07035669 0 49.0625 C-0.84175781 49.07059692 -1.68351562 49.07869385 -2.55078125 49.08703613 C-6.13136419 49.02971604 -8.39761762 48.88151558 -11.52929688 47.06054688 C-13.73374916 43.26935736 -13.57275697 39.84632305 -13.53125 35.53125 C-13.5350769 34.65855469 -13.53890381 33.78585937 -13.54284668 32.88671875 C-13.5455649 31.04425908 -13.53820994 29.20176076 -13.52148438 27.359375 C-13.50007248 24.54079066 -13.52128801 21.72475515 -13.546875 18.90625 C-13.54423171 17.11457771 -13.53910669 15.32290701 -13.53125 13.53125 C-13.53934692 12.68949219 -13.54744385 11.84773438 -13.55578613 10.98046875 C-13.49846604 7.39988581 -13.35026558 5.13363238 -11.52929688 2.00195312 C-7.73810736 -0.20249916 -4.31507305 -0.04150697 0 0 Z M3 16.53125 C3 21.81125 3 27.09125 3 32.53125 C8.28 32.53125 13.56 32.53125 19 32.53125 C19 27.25125 19 21.97125 19 16.53125 C13.72 16.53125 8.44 16.53125 3 16.53125 Z " fill="#000000" transform="translate(341,303.46875)"/>
<path d="M0 0 C0.87269531 -0.0038269 1.74539063 -0.00765381 2.64453125 -0.01159668 C4.48699092 -0.0143149 6.32948924 -0.00695994 8.171875 0.00976562 C10.99045934 0.03117752 13.80649485 0.00996199 16.625 -0.015625 C18.41667229 -0.01298171 20.20834299 -0.00785669 22 0 C22.84175781 -0.00809692 23.68351562 -0.01619385 24.55078125 -0.02453613 C28.13136419 0.03278396 30.39761762 0.18098442 33.52929688 2.00195312 C35.73374916 5.79314264 35.57275697 9.21617695 35.53125 13.53125 C35.5350769 14.40394531 35.53890381 15.27664062 35.54284668 16.17578125 C35.5455649 18.01824092 35.53820994 19.86073924 35.52148438 21.703125 C35.50007248 24.52170934 35.52128801 27.33774485 35.546875 30.15625 C35.54423171 31.94792229 35.53910669 33.73959299 35.53125 35.53125 C35.53934692 36.37300781 35.54744385 37.21476562 35.55578613 38.08203125 C35.49846604 41.66261419 35.35026558 43.92886762 33.52929688 47.06054688 C29.73810736 49.26499916 26.31507305 49.10400697 22 49.0625 C21.12730469 49.0663269 20.25460937 49.07015381 19.35546875 49.07409668 C17.51300908 49.0768149 15.67051076 49.06945994 13.828125 49.05273438 C11.00954066 49.03132248 8.19350515 49.05253801 5.375 49.078125 C3.58332771 49.07548171 1.79165701 49.07035669 0 49.0625 C-0.84175781 49.07059692 -1.68351562 49.07869385 -2.55078125 49.08703613 C-6.13136419 49.02971604 -8.39761762 48.88151558 -11.52929688 47.06054688 C-13.73374916 43.26935736 -13.57275697 39.84632305 -13.53125 35.53125 C-13.5350769 34.65855469 -13.53890381 33.78585938 -13.54284668 32.88671875 C-13.5455649 31.04425908 -13.53820994 29.20176076 -13.52148438 27.359375 C-13.50007248 24.54079066 -13.52128801 21.72475515 -13.546875 18.90625 C-13.54423171 17.11457771 -13.53910669 15.32290701 -13.53125 13.53125 C-13.53934692 12.68949219 -13.54744385 11.84773437 -13.55578613 10.98046875 C-13.49846604 7.39988581 -13.35026558 5.13363238 -11.52929688 2.00195312 C-7.73810736 -0.20249916 -4.31507305 -0.04150697 0 0 Z M3 16.53125 C3 21.81125 3 27.09125 3 32.53125 C8.28 32.53125 13.56 32.53125 19 32.53125 C19 27.25125 19 21.97125 19 16.53125 C13.72 16.53125 8.44 16.53125 3 16.53125 Z " fill="#000000" transform="translate(445,159.46875)"/>
<path d="M0 0 C1.00853027 -0.00700928 2.01706055 -0.01401855 3.05615234 -0.02124023 C6.39188114 -0.03885406 9.72676248 -0.02718497 13.0625 -0.01367188 C15.37890791 -0.0163658 17.69531472 -0.02024739 20.01171875 -0.02526855 C24.86729698 -0.03116822 29.72258096 -0.02258526 34.578125 -0.00390625 C40.80614646 0.01888316 47.03347845 0.00576265 53.26147461 -0.01819611 C58.04497485 -0.0326412 62.82831127 -0.02805393 67.61181641 -0.01768494 C69.90836671 -0.0150141 72.20493183 -0.01829988 74.50146484 -0.02760315 C77.7097114 -0.03774714 80.91683706 -0.02229671 84.125 0 C85.55271729 -0.01214539 85.55271729 -0.01214539 87.00927734 -0.02453613 C93.43945009 0.05837271 93.43945009 0.05837271 96.65039062 2.42492676 C98.17562415 4.68522053 98.60471773 5.81564333 98.5625 8.51757812 C98.57796875 9.50757813 98.57796875 9.50757813 98.59375 10.51757812 C97.77143622 13.61334764 96.65975504 14.60332765 94.0625 16.51757812 C90.75626211 17.12830568 87.47912473 17.06368931 84.125 17.03515625 C83.11646973 17.04216553 82.10793945 17.0491748 81.06884766 17.05639648 C77.73311886 17.07401031 74.39823752 17.06234122 71.0625 17.04882812 C68.74609209 17.05152205 66.42968528 17.05540364 64.11328125 17.0604248 C59.25770302 17.06632447 54.40241904 17.05774151 49.546875 17.0390625 C43.31885354 17.01627309 37.09152155 17.0293936 30.86352539 17.05335236 C26.08002515 17.06779745 21.29668873 17.06321018 16.51318359 17.05284119 C14.21663329 17.05017035 11.92006817 17.05345613 9.62353516 17.0627594 C6.4152886 17.07290339 3.20816294 17.05745296 0 17.03515625 C-0.95181152 17.04325317 -1.90362305 17.0513501 -2.88427734 17.05969238 C-9.31445009 16.97678354 -9.31445009 16.97678354 -12.52539062 14.61022949 C-14.05062415 12.34993572 -14.47971773 11.21951292 -14.4375 8.51757812 C-14.45296875 7.52757812 -14.45296875 7.52757812 -14.46875 6.51757812 C-12.53367962 -0.76739273 -6.18858895 -0.05264544 0 0 Z " fill="#000000" transform="translate(97.9375,123.482421875)"/>
<path d="M0 0 C0.66 -0.0103125 1.32 -0.020625 2 -0.03125 C4.95613104 0.75397231 6.09984561 2.12505125 8 4.5 C8.45410156 7.52441406 8.45410156 7.52441406 8.390625 11.015625 C8.37128906 12.89121094 8.37128906 12.89121094 8.3515625 14.8046875 C8.31804687 16.10664063 8.28453125 17.40859375 8.25 18.75 C8.23195313 20.06742188 8.21390625 21.38484375 8.1953125 22.7421875 C8.14816271 25.99552308 8.08236044 29.24739625 8 32.5 C8.82725586 32.47905273 9.65451172 32.45810547 10.50683594 32.43652344 C14.2544337 32.35338381 18.00183749 32.30134469 21.75 32.25 C23.05195313 32.21648437 24.35390625 32.18296875 25.6953125 32.1484375 C26.94570313 32.13554687 28.19609375 32.12265625 29.484375 32.109375 C30.63647461 32.08842773 31.78857422 32.06748047 32.97558594 32.04589844 C36.63146493 32.59481149 37.76793862 33.616418 40 36.5 C40.53125 38.5 40.53125 38.5 40.5 40.5 C40.5103125 41.16 40.520625 41.82 40.53125 42.5 C39.72011424 45.55368756 38.53019712 46.59111769 36 48.5 C33.00263779 49.10114553 30.04890723 49.06057764 27 49.03125 C26.12730469 49.0350769 25.25460937 49.03890381 24.35546875 49.04284668 C22.51300908 49.0455649 20.67051076 49.03820994 18.828125 49.02148438 C16.00954066 49.00007248 13.19350515 49.02128801 10.375 49.046875 C8.58332771 49.04423171 6.79165701 49.03910669 5 49.03125 C4.15824219 49.03934692 3.31648438 49.04744385 2.44921875 49.05578613 C-1.13136419 48.99846604 -3.39761762 48.85026558 -6.52929688 47.02929688 C-8.73374916 43.23810736 -8.57275697 39.81507305 -8.53125 35.5 C-8.5350769 34.62730469 -8.53890381 33.75460937 -8.54284668 32.85546875 C-8.5455649 31.01300908 -8.53820994 29.17051076 -8.52148438 27.328125 C-8.50007248 24.50954066 -8.52128801 21.69350515 -8.546875 18.875 C-8.54423171 17.08332771 -8.53910669 15.29165701 -8.53125 13.5 C-8.53934692 12.65824219 -8.54744385 11.81648437 -8.55578613 10.94921875 C-8.46235399 5.11284382 -8.46235399 5.11284382 -6.09179688 1.97070312 C-3.8272647 0.37855305 -2.7390083 -0.042797 0 0 Z " fill="#000000" transform="translate(388,223.5)"/>
<path d="M0 0 C0.66 -0.0103125 1.32 -0.020625 2 -0.03125 C4.95613104 0.75397231 6.09984561 2.12505125 8 4.5 C8.45410156 7.52441406 8.45410156 7.52441406 8.390625 11.015625 C8.37128906 12.89121094 8.37128906 12.89121094 8.3515625 14.8046875 C8.31804687 16.10664063 8.28453125 17.40859375 8.25 18.75 C8.23195313 20.06742188 8.21390625 21.38484375 8.1953125 22.7421875 C8.14816271 25.99552308 8.08236044 29.24739625 8 32.5 C8.82725586 32.47905273 9.65451172 32.45810547 10.50683594 32.43652344 C14.2544337 32.35338381 18.00183749 32.30134469 21.75 32.25 C23.05195313 32.21648437 24.35390625 32.18296875 25.6953125 32.1484375 C26.94570313 32.13554687 28.19609375 32.12265625 29.484375 32.109375 C30.63647461 32.08842773 31.78857422 32.06748047 32.97558594 32.04589844 C36.63146493 32.59481149 37.76793862 33.616418 40 36.5 C40.53125 38.5 40.53125 38.5 40.5 40.5 C40.5103125 41.16 40.520625 41.82 40.53125 42.5 C39.72011424 45.55368756 38.53019712 46.59111769 36 48.5 C33.00263779 49.10114553 30.04890723 49.06057764 27 49.03125 C26.12730469 49.0350769 25.25460937 49.03890381 24.35546875 49.04284668 C22.51300908 49.0455649 20.67051076 49.03820994 18.828125 49.02148438 C16.00954066 49.00007248 13.19350515 49.02128801 10.375 49.046875 C8.58332771 49.04423171 6.79165701 49.03910669 5 49.03125 C4.15824219 49.03934692 3.31648438 49.04744385 2.44921875 49.05578613 C-1.13136419 48.99846604 -3.39761762 48.85026558 -6.52929688 47.02929688 C-8.73374916 43.23810736 -8.57275697 39.81507305 -8.53125 35.5 C-8.5350769 34.62730469 -8.53890381 33.75460938 -8.54284668 32.85546875 C-8.5455649 31.01300908 -8.53820994 29.17051076 -8.52148438 27.328125 C-8.50007248 24.50954066 -8.52128801 21.69350515 -8.546875 18.875 C-8.54423171 17.08332771 -8.53910669 15.29165701 -8.53125 13.5 C-8.53934692 12.65824219 -8.54744385 11.81648437 -8.55578613 10.94921875 C-8.46235399 5.11284382 -8.46235399 5.11284382 -6.09179688 1.97070312 C-3.8272647 0.37855305 -2.7390083 -0.042797 0 0 Z " fill="#000000" transform="translate(336,159.5)"/>
<path d="M0 0 C2.5 1.5 2.5 1.5 4 4 C5.01583786 8.45405829 4.90603164 10.55405692 2.47265625 14.4375 C0.0988361 17.40809058 -2.40899545 20.22034628 -5 23 C-5.556875 23.60360352 -6.11375 24.20720703 -6.6875 24.82910156 C-9.68774234 28.07771923 -12.70675637 31.30769195 -15.7421875 34.5234375 C-18.83358344 37.80594435 -21.83230301 41.15730222 -24.765625 44.58203125 C-27.67825113 47.92786443 -27.67825113 47.92786443 -29.88061523 48.42163086 C-34.55465675 48.64216698 -37.41761885 48.1655732 -41.16015625 45.25390625 C-42.48285356 44.04702721 -43.78357289 42.81566825 -45.0625 41.5625 C-46.07473633 40.67401367 -46.07473633 40.67401367 -47.10742188 39.76757812 C-49.79329184 37.22321296 -51.72703816 35.295114 -52.50390625 31.60913086 C-52.60986356 27.50369896 -52.5629338 25.67883193 -49.875 22.4375 C-46.42109071 20.71054536 -44.81184542 20.31386782 -41 21 C-38.4889401 22.4630974 -36.23593322 24.14774762 -34 26 C-30.32329416 24.48947977 -28.28125538 22.3511385 -25.6875 19.375 C-24.90375 18.48167969 -24.12 17.58835938 -23.3125 16.66796875 C-22.549375 15.78753906 -21.78625 14.90710938 -21 14 C-20.34 13.25363281 -19.68 12.50726563 -19 11.73828125 C-16.48682008 8.89470483 -14.03563926 6.04527149 -11.6875 3.0625 C-8.54476426 -0.77862146 -4.67821317 -0.63793816 0 0 Z " fill="#000000" transform="translate(164,232)"/>
<path d="M0 0 C0.66 -0.0103125 1.32 -0.020625 2 -0.03125 C5.06266217 0.78226964 6.16449142 1.91729324 8 4.5 C8.2906124 7.39449949 8.38186045 9.87949935 8.25 12.75 C8.23195313 13.49507813 8.21390625 14.24015625 8.1953125 15.0078125 C8.14835649 16.83909701 8.07661652 18.66971649 8 20.5 C8.82725586 20.47905273 9.65451172 20.45810547 10.50683594 20.43652344 C14.2544337 20.35338381 18.00183749 20.30134469 21.75 20.25 C23.05195313 20.21648437 24.35390625 20.18296875 25.6953125 20.1484375 C26.94570313 20.13554687 28.19609375 20.12265625 29.484375 20.109375 C30.63647461 20.08842773 31.78857422 20.06748047 32.97558594 20.04589844 C36.63146493 20.59481149 37.76793862 21.616418 40 24.5 C40.53125 26.5 40.53125 26.5 40.5 28.5 C40.5103125 29.16 40.520625 29.82 40.53125 30.5 C39.72011424 33.55368756 38.53019712 34.59111769 36 36.5 C33.00263779 37.10114553 30.04890723 37.06057764 27 37.03125 C26.12730469 37.0350769 25.25460937 37.03890381 24.35546875 37.04284668 C22.51300908 37.0455649 20.67051076 37.03820994 18.828125 37.02148438 C16.00954066 37.00007248 13.19350515 37.02128801 10.375 37.046875 C8.58332771 37.04423171 6.79165701 37.03910669 5 37.03125 C4.15824219 37.03934692 3.31648438 37.04744385 2.44921875 37.05578613 C-1.23987264 36.99672897 -3.38276899 36.89893618 -6.52929688 34.86523438 C-8.44102554 31.79072784 -8.51678553 29.73698474 -8.53125 26.125 C-8.53640625 24.89265625 -8.5415625 23.6603125 -8.546875 22.390625 C-8.53140625 21.10671875 -8.5159375 19.8228125 -8.5 18.5 C-8.51546875 17.21609375 -8.5309375 15.9321875 -8.546875 14.609375 C-8.54171875 13.37703125 -8.5365625 12.1446875 -8.53125 10.875 C-8.52673828 9.74835938 -8.52222656 8.62171875 -8.51757812 7.4609375 C-7.68069092 2.67331106 -4.93416072 -0.07709626 0 0 Z " fill="#000000" transform="translate(400,315.5)"/>
<path d="M0 0 C1.051875 -0.00515625 2.10375 -0.0103125 3.1875 -0.015625 C4.280625 -0.00015625 5.37375 0.0153125 6.5 0.03125 C8.1396875 0.00804687 8.1396875 0.00804687 9.8125 -0.015625 C10.864375 -0.01046875 11.91625 -0.0053125 13 0 C14.43859375 0.00676758 14.43859375 0.00676758 15.90625 0.01367188 C19.21298564 0.673525 20.40908706 1.94238555 22.5 4.53125 C23.03125 6.53125 23.03125 6.53125 23 8.53125 C23.0103125 9.19125 23.020625 9.85125 23.03125 10.53125 C22.24799158 13.4799876 20.86485285 14.63466544 18.5 16.53125 C15.484375 16.921875 15.484375 16.921875 12.25 16.78125 C11.17234375 16.74515625 10.0946875 16.7090625 8.984375 16.671875 C7.75460937 16.60226562 7.75460937 16.60226562 6.5 16.53125 C6.52094727 17.35850586 6.54189453 18.18576172 6.56347656 19.03808594 C6.64661619 22.7856837 6.69865531 26.53308749 6.75 30.28125 C6.80027344 32.23417969 6.80027344 32.23417969 6.8515625 34.2265625 C6.86445313 35.47695313 6.87734375 36.72734375 6.890625 38.015625 C6.91157227 39.16772461 6.93251953 40.31982422 6.95410156 41.50683594 C6.40518851 45.16271493 5.383582 46.29918862 2.5 48.53125 C0.5 49.0625 0.5 49.0625 -1.5 49.03125 C-2.49 49.04671875 -2.49 49.04671875 -3.5 49.0625 C-6.55368756 48.25136424 -7.59111769 47.06144712 -9.5 44.53125 C-10.10114553 41.53388779 -10.06057764 38.58015723 -10.03125 35.53125 C-10.0350769 34.65855469 -10.03890381 33.78585937 -10.04284668 32.88671875 C-10.0455649 31.04425908 -10.03820994 29.20176076 -10.02148438 27.359375 C-10.00007248 24.54079066 -10.02128801 21.72475515 -10.046875 18.90625 C-10.04423171 17.11457771 -10.03910669 15.32290701 -10.03125 13.53125 C-10.03934692 12.68949219 -10.04744385 11.84773438 -10.05578613 10.98046875 C-9.99613798 7.25446043 -9.91518861 5.15283295 -7.81054688 2.00195312 C-4.99799413 0.21171457 -3.32184127 0.01562694 0 0 Z " fill="#000000" transform="translate(457.5,303.46875)"/>
<path d="M0 0 C1.051875 -0.00515625 2.10375 -0.0103125 3.1875 -0.015625 C4.280625 -0.00015625 5.37375 0.0153125 6.5 0.03125 C8.1396875 0.00804687 8.1396875 0.00804687 9.8125 -0.015625 C10.864375 -0.01046875 11.91625 -0.0053125 13 0 C14.43859375 0.00676758 14.43859375 0.00676758 15.90625 0.01367188 C19.21298564 0.673525 20.40908706 1.94238555 22.5 4.53125 C23.03125 6.53125 23.03125 6.53125 23 8.53125 C23.0103125 9.19125 23.020625 9.85125 23.03125 10.53125 C22.23922269 13.51299986 20.95326814 14.69536059 18.5 16.53125 C15.484375 16.921875 15.484375 16.921875 12.25 16.78125 C11.17234375 16.74515625 10.0946875 16.7090625 8.984375 16.671875 C8.16453125 16.62546875 7.3446875 16.5790625 6.5 16.53125 C6.54640625 17.35109375 6.5928125 18.1709375 6.640625 19.015625 C6.69476563 20.63210937 6.69476563 20.63210937 6.75 22.28125 C6.79640625 23.34859375 6.8428125 24.4159375 6.890625 25.515625 C6.40105067 29.29513886 5.4457076 30.1883272 2.5 32.53125 C-0.09375 33.04882812 -0.09375 33.04882812 -3 33.0625 C-4.051875 33.06765625 -5.10375 33.0728125 -6.1875 33.078125 C-7.280625 33.06265625 -8.37375 33.0471875 -9.5 33.03125 C-10.593125 33.04671875 -11.68625 33.0621875 -12.8125 33.078125 C-13.864375 33.07296875 -14.91625 33.0678125 -16 33.0625 C-16.9590625 33.05798828 -17.918125 33.05347656 -18.90625 33.04882812 C-22.21298564 32.388975 -23.40908706 31.12011445 -25.5 28.53125 C-26.03125 26.53125 -26.03125 26.53125 -26 24.53125 C-26.01546875 23.54125 -26.01546875 23.54125 -26.03125 22.53125 C-25.23922269 19.54950014 -23.95326814 18.36713941 -21.5 16.53125 C-18.484375 16.140625 -18.484375 16.140625 -15.25 16.28125 C-14.17234375 16.31734375 -13.0946875 16.3534375 -11.984375 16.390625 C-10.75460937 16.46023437 -10.75460937 16.46023437 -9.5 16.53125 C-9.54640625 15.71140625 -9.5928125 14.8915625 -9.640625 14.046875 C-9.67671875 12.96921875 -9.7128125 11.8915625 -9.75 10.78125 C-9.79640625 9.71390625 -9.8428125 8.6465625 -9.890625 7.546875 C-9.12861027 1.66412125 -5.551878 0.02611771 0 0 Z " fill="#000000" transform="translate(353.5,223.46875)"/>
<path d="M0 0 C1.05026367 -0.0038269 2.10052734 -0.00765381 3.18261719 -0.01159668 C5.40170247 -0.01431696 7.62081974 -0.00694777 9.83984375 0.00976562 C13.23770595 0.03117255 16.63345361 0.00996675 20.03125 -0.015625 C22.18750467 -0.01298175 24.34375802 -0.00785682 26.5 0 C27.51674805 -0.00809692 28.53349609 -0.01619385 29.58105469 -0.02453613 C36.61077417 0.06898232 36.61077417 0.06898232 39.88867188 2.43945312 C41.35641689 4.69476864 41.79171277 5.86163257 41.75 8.53125 C41.7603125 9.19125 41.770625 9.85125 41.78125 10.53125 C40.9489357 13.66466854 39.90683918 14.60990886 37.25 16.53125 C33.67231501 17.14709573 30.12279111 17.09135028 26.5 17.0625 C24.92460449 17.06824036 24.92460449 17.06824036 23.31738281 17.07409668 C21.09829753 17.07681696 18.87918026 17.06944777 16.66015625 17.05273438 C13.26229405 17.03132745 9.86654639 17.05253325 6.46875 17.078125 C4.31249533 17.07548175 2.15624198 17.07035682 0 17.0625 C-1.01674805 17.07059692 -2.03349609 17.07869385 -3.08105469 17.08703613 C-10.11077417 16.99351768 -10.11077417 16.99351768 -13.38867188 14.62304688 C-14.85641689 12.36773136 -15.29171277 11.20086743 -15.25 8.53125 C-15.26546875 7.54125 -15.26546875 7.54125 -15.28125 6.53125 C-13.27705847 -1.01394163 -6.37452488 -0.05076385 0 0 Z " fill="#000000" transform="translate(126.75,463.46875)"/>
<path d="M0 0 C0.66 -0.0103125 1.32 -0.020625 2 -0.03125 C4.91796104 0.7438334 6.0931088 2.19104167 8 4.5 C8.51757812 7.09375 8.51757812 7.09375 8.53125 10 C8.53898438 11.5778125 8.53898438 11.5778125 8.546875 13.1875 C8.53140625 14.280625 8.5159375 15.37375 8.5 16.5 C8.51546875 17.593125 8.5309375 18.68625 8.546875 19.8125 C8.54171875 20.864375 8.5365625 21.91625 8.53125 23 C8.52673828 23.9590625 8.52222656 24.918125 8.51757812 25.90625 C7.84012763 29.3011717 6.77858074 30.46832431 4 32.5 C1.40625 33.01757812 1.40625 33.01757812 -1.5 33.03125 C-2.551875 33.03640625 -3.60375 33.0415625 -4.6875 33.046875 C-5.780625 33.03140625 -6.87375 33.0159375 -8 33 C-9.093125 33.01546875 -10.18625 33.0309375 -11.3125 33.046875 C-12.364375 33.04171875 -13.41625 33.0365625 -14.5 33.03125 C-15.4590625 33.02673828 -16.418125 33.02222656 -17.40625 33.01757812 C-20.71298564 32.357725 -21.90908706 31.08886445 -24 28.5 C-24.53125 26.5 -24.53125 26.5 -24.5 24.5 C-24.51546875 23.51 -24.51546875 23.51 -24.53125 22.5 C-23.73922269 19.51825014 -22.45326814 18.33588941 -20 16.5 C-16.984375 16.109375 -16.984375 16.109375 -13.75 16.25 C-12.67234375 16.28609375 -11.5946875 16.3221875 -10.484375 16.359375 C-9.25460937 16.42898438 -9.25460937 16.42898438 -8 16.5 C-8.04640625 15.68015625 -8.0928125 14.8603125 -8.140625 14.015625 C-8.17671875 12.93796875 -8.2128125 11.8603125 -8.25 10.75 C-8.29640625 9.68265625 -8.3428125 8.6153125 -8.390625 7.515625 C-8 4.5 -8 4.5 -6.234375 2.140625 C-3.87710195 0.40976018 -2.87529794 -0.04492653 0 0 Z " fill="#000000" transform="translate(504,351.5)"/>
<path d="M0 0 C0.66 -0.0103125 1.32 -0.020625 2 -0.03125 C4.98174986 0.76077731 6.16411059 2.04673186 8 4.5 C8.390625 7.515625 8.390625 7.515625 8.25 10.75 C8.21390625 11.82765625 8.1778125 12.9053125 8.140625 14.015625 C8.07101562 15.24539063 8.07101562 15.24539063 8 16.5 C8.81984375 16.45359375 9.6396875 16.4071875 10.484375 16.359375 C11.56203125 16.32328125 12.6396875 16.2871875 13.75 16.25 C15.35101563 16.18039062 15.35101563 16.18039062 16.984375 16.109375 C20 16.5 20 16.5 22.359375 18.265625 C24.09023982 20.62289805 24.54492653 21.62470206 24.5 24.5 C24.5103125 25.16 24.520625 25.82 24.53125 26.5 C23.7561666 29.41796104 22.30895833 30.5931088 20 32.5 C17.40625 33.01757812 17.40625 33.01757812 14.5 33.03125 C13.448125 33.03640625 12.39625 33.0415625 11.3125 33.046875 C10.219375 33.03140625 9.12625 33.0159375 8 33 C6.906875 33.01546875 5.81375 33.0309375 4.6875 33.046875 C3.635625 33.04171875 2.58375 33.0365625 1.5 33.03125 C0.5409375 33.02673828 -0.418125 33.02222656 -1.40625 33.01757812 C-4.8011717 32.34012763 -5.96832431 31.27858074 -8 28.5 C-8.51757812 25.90625 -8.51757812 25.90625 -8.53125 23 C-8.53640625 21.948125 -8.5415625 20.89625 -8.546875 19.8125 C-8.53140625 18.719375 -8.5159375 17.62625 -8.5 16.5 C-8.51546875 15.406875 -8.5309375 14.31375 -8.546875 13.1875 C-8.53914063 11.6096875 -8.53914063 11.6096875 -8.53125 10 C-8.52673828 9.0409375 -8.52222656 8.081875 -8.51757812 7.09375 C-7.60329874 2.51200272 -4.67433964 -0.07303656 0 0 Z " fill="#000000" transform="translate(304,351.5)"/>
<path d="M0 0 C0.66 -0.0103125 1.32 -0.020625 2 -0.03125 C4.91796104 0.7438334 6.0931088 2.19104167 8 4.5 C8.51757812 7.09375 8.51757812 7.09375 8.53125 10 C8.53898437 11.5778125 8.53898437 11.5778125 8.546875 13.1875 C8.53140625 14.280625 8.5159375 15.37375 8.5 16.5 C8.51546875 17.593125 8.5309375 18.68625 8.546875 19.8125 C8.54171875 20.864375 8.5365625 21.91625 8.53125 23 C8.52673828 23.9590625 8.52222656 24.918125 8.51757812 25.90625 C7.84012763 29.3011717 6.77858074 30.46832431 4 32.5 C1.40625 33.01757812 1.40625 33.01757812 -1.5 33.03125 C-2.551875 33.03640625 -3.60375 33.0415625 -4.6875 33.046875 C-5.780625 33.03140625 -6.87375 33.0159375 -8 33 C-9.093125 33.01546875 -10.18625 33.0309375 -11.3125 33.046875 C-12.364375 33.04171875 -13.41625 33.0365625 -14.5 33.03125 C-15.4590625 33.02673828 -16.418125 33.02222656 -17.40625 33.01757812 C-20.71298564 32.357725 -21.90908706 31.08886445 -24 28.5 C-24.53125 26.5 -24.53125 26.5 -24.5 24.5 C-24.51546875 23.51 -24.51546875 23.51 -24.53125 22.5 C-23.73922269 19.51825014 -22.45326814 18.33588941 -20 16.5 C-16.984375 16.109375 -16.984375 16.109375 -13.75 16.25 C-12.67234375 16.28609375 -11.5946875 16.3221875 -10.484375 16.359375 C-9.25460937 16.42898437 -9.25460937 16.42898437 -8 16.5 C-8.04640625 15.68015625 -8.0928125 14.8603125 -8.140625 14.015625 C-8.17671875 12.93796875 -8.2128125 11.8603125 -8.25 10.75 C-8.29640625 9.68265625 -8.3428125 8.6153125 -8.390625 7.515625 C-8 4.5 -8 4.5 -6.234375 2.140625 C-3.87710195 0.40976018 -2.87529794 -0.04492653 0 0 Z " fill="#000000" transform="translate(472,223.5)"/>
<path d="M0 0 C1.051875 -0.00515625 2.10375 -0.0103125 3.1875 -0.015625 C4.280625 -0.00015625 5.37375 0.0153125 6.5 0.03125 C8.1396875 0.00804688 8.1396875 0.00804688 9.8125 -0.015625 C10.864375 -0.01046875 11.91625 -0.0053125 13 0 C14.43859375 0.00676758 14.43859375 0.00676758 15.90625 0.01367188 C19.3011717 0.69112237 20.46832431 1.75266926 22.5 4.53125 C23.01757812 7.125 23.01757812 7.125 23.03125 10.03125 C23.03898438 11.6090625 23.03898438 11.6090625 23.046875 13.21875 C23.03140625 14.311875 23.0159375 15.405 23 16.53125 C23.01546875 17.624375 23.0309375 18.7175 23.046875 19.84375 C23.04171875 20.895625 23.0365625 21.9475 23.03125 23.03125 C23.02673828 23.9903125 23.02222656 24.949375 23.01757812 25.9375 C22.357725 29.24423564 21.08886445 30.44033706 18.5 32.53125 C16.5 33.0625 16.5 33.0625 14.5 33.03125 C13.51 33.04671875 13.51 33.04671875 12.5 33.0625 C9.51825014 32.27047269 8.33588941 30.98451814 6.5 28.53125 C6.109375 25.515625 6.109375 25.515625 6.25 22.28125 C6.28609375 21.20359375 6.3221875 20.1259375 6.359375 19.015625 C6.40578125 18.19578125 6.4521875 17.3759375 6.5 16.53125 C5.68015625 16.57765625 4.8603125 16.6240625 4.015625 16.671875 C2.39914062 16.72601563 2.39914062 16.72601563 0.75 16.78125 C-0.85101563 16.85085937 -0.85101563 16.85085937 -2.484375 16.921875 C-5.5 16.53125 -5.5 16.53125 -7.859375 14.765625 C-9.59023982 12.40835195 -10.04492653 11.40654794 -10 8.53125 C-10.01546875 7.54125 -10.01546875 7.54125 -10.03125 6.53125 C-8.65240655 1.34030994 -4.94094259 0.02324368 0 0 Z " fill="#000000" transform="translate(489.5,127.46875)"/>
<path d="M0 0 C1.051875 -0.00515625 2.10375 -0.0103125 3.1875 -0.015625 C4.280625 -0.00015625 5.37375 0.0153125 6.5 0.03125 C8.1396875 0.00804688 8.1396875 0.00804688 9.8125 -0.015625 C10.864375 -0.01046875 11.91625 -0.0053125 13 0 C14.43859375 0.00676758 14.43859375 0.00676758 15.90625 0.01367188 C19.21298564 0.673525 20.40908706 1.94238555 22.5 4.53125 C23.03125 6.53125 23.03125 6.53125 23 8.53125 C23.0103125 9.19125 23.020625 9.85125 23.03125 10.53125 C22.23922269 13.51299986 20.95326814 14.69536059 18.5 16.53125 C15.484375 16.921875 15.484375 16.921875 12.25 16.78125 C11.17234375 16.74515625 10.0946875 16.7090625 8.984375 16.671875 C7.75460937 16.60226563 7.75460937 16.60226563 6.5 16.53125 C6.54640625 17.35109375 6.5928125 18.1709375 6.640625 19.015625 C6.69476563 20.63210937 6.69476563 20.63210937 6.75 22.28125 C6.79640625 23.34859375 6.8428125 24.4159375 6.890625 25.515625 C6.5 28.53125 6.5 28.53125 4.734375 30.890625 C2.37710195 32.62148982 1.37529794 33.07617653 -1.5 33.03125 C-2.49 33.04671875 -2.49 33.04671875 -3.5 33.0625 C-6.41796104 32.2874166 -7.5931088 30.84020833 -9.5 28.53125 C-10.01757812 25.9375 -10.01757812 25.9375 -10.03125 23.03125 C-10.03640625 21.979375 -10.0415625 20.9275 -10.046875 19.84375 C-10.03140625 18.750625 -10.0159375 17.6575 -10 16.53125 C-10.01546875 15.438125 -10.0309375 14.345 -10.046875 13.21875 C-10.03914063 11.6409375 -10.03914063 11.6409375 -10.03125 10.03125 C-10.02673828 9.0721875 -10.02222656 8.113125 -10.01757812 7.125 C-8.88515929 1.45008601 -5.39576194 0.02538329 0 0 Z " fill="#000000" transform="translate(305.5,127.46875)"/>
<path d="M0 0 C1.051875 -0.00515625 2.10375 -0.0103125 3.1875 -0.015625 C4.280625 -0.00015625 5.37375 0.0153125 6.5 0.03125 C8.1396875 0.00804687 8.1396875 0.00804687 9.8125 -0.015625 C10.864375 -0.01046875 11.91625 -0.0053125 13 0 C14.43859375 0.00676758 14.43859375 0.00676758 15.90625 0.01367188 C19.21298564 0.673525 20.40908706 1.94238555 22.5 4.53125 C23.03125 6.53125 23.03125 6.53125 23 8.53125 C23.0103125 9.19125 23.020625 9.85125 23.03125 10.53125 C22.2561666 13.44921104 20.80895833 14.6243588 18.5 16.53125 C15.90625 17.04882812 15.90625 17.04882812 13 17.0625 C11.948125 17.06765625 10.89625 17.0728125 9.8125 17.078125 C8.719375 17.06265625 7.62625 17.0471875 6.5 17.03125 C4.8603125 17.05445313 4.8603125 17.05445313 3.1875 17.078125 C2.135625 17.07296875 1.08375 17.0678125 0 17.0625 C-0.9590625 17.05798828 -1.918125 17.05347656 -2.90625 17.04882812 C-6.21298564 16.388975 -7.40908706 15.12011445 -9.5 12.53125 C-10.03125 10.53125 -10.03125 10.53125 -10 8.53125 C-10.01546875 7.54125 -10.01546875 7.54125 -10.03125 6.53125 C-8.65240655 1.34030994 -4.94094259 0.02324368 0 0 Z " fill="#000000" transform="translate(417.5,287.46875)"/>
<path d="M0 0 C1.051875 -0.00515625 2.10375 -0.0103125 3.1875 -0.015625 C4.280625 -0.00015625 5.37375 0.0153125 6.5 0.03125 C8.1396875 0.00804687 8.1396875 0.00804687 9.8125 -0.015625 C10.864375 -0.01046875 11.91625 -0.0053125 13 0 C14.43859375 0.00676758 14.43859375 0.00676758 15.90625 0.01367188 C19.21298564 0.673525 20.40908706 1.94238555 22.5 4.53125 C23.03125 6.53125 23.03125 6.53125 23 8.53125 C23.0103125 9.19125 23.020625 9.85125 23.03125 10.53125 C22.2561666 13.44921104 20.80895833 14.6243588 18.5 16.53125 C15.90625 17.04882812 15.90625 17.04882812 13 17.0625 C11.948125 17.06765625 10.89625 17.0728125 9.8125 17.078125 C8.719375 17.06265625 7.62625 17.0471875 6.5 17.03125 C4.8603125 17.05445313 4.8603125 17.05445313 3.1875 17.078125 C2.135625 17.07296875 1.08375 17.0678125 0 17.0625 C-0.9590625 17.05798828 -1.918125 17.05347656 -2.90625 17.04882812 C-6.21298564 16.388975 -7.40908706 15.12011445 -9.5 12.53125 C-10.03125 10.53125 -10.03125 10.53125 -10 8.53125 C-10.01546875 7.54125 -10.01546875 7.54125 -10.03125 6.53125 C-8.65240655 1.34030994 -4.94094259 0.02324368 0 0 Z " fill="#000000" transform="translate(457.5,271.46875)"/>
<path d="M0 0 C1.051875 -0.00515625 2.10375 -0.0103125 3.1875 -0.015625 C4.280625 -0.00015625 5.37375 0.0153125 6.5 0.03125 C8.1396875 0.00804687 8.1396875 0.00804687 9.8125 -0.015625 C10.864375 -0.01046875 11.91625 -0.0053125 13 0 C14.43859375 0.00676758 14.43859375 0.00676758 15.90625 0.01367188 C19.21298564 0.673525 20.40908706 1.94238555 22.5 4.53125 C23.03125 6.53125 23.03125 6.53125 23 8.53125 C23.0103125 9.19125 23.020625 9.85125 23.03125 10.53125 C22.2561666 13.44921104 20.80895833 14.6243588 18.5 16.53125 C15.90625 17.04882812 15.90625 17.04882812 13 17.0625 C11.948125 17.06765625 10.89625 17.0728125 9.8125 17.078125 C8.719375 17.06265625 7.62625 17.0471875 6.5 17.03125 C4.8603125 17.05445313 4.8603125 17.05445313 3.1875 17.078125 C2.135625 17.07296875 1.08375 17.0678125 0 17.0625 C-0.9590625 17.05798828 -1.918125 17.05347656 -2.90625 17.04882812 C-6.21298564 16.388975 -7.40908706 15.12011445 -9.5 12.53125 C-10.03125 10.53125 -10.03125 10.53125 -10 8.53125 C-10.01546875 7.54125 -10.01546875 7.54125 -10.03125 6.53125 C-8.65240655 1.34030994 -4.94094259 0.02324368 0 0 Z " fill="#000000" transform="translate(353.5,271.46875)"/>
<path d="M0 0 C1.051875 -0.00515625 2.10375 -0.0103125 3.1875 -0.015625 C4.280625 -0.00015625 5.37375 0.0153125 6.5 0.03125 C8.1396875 0.00804687 8.1396875 0.00804687 9.8125 -0.015625 C10.864375 -0.01046875 11.91625 -0.0053125 13 0 C14.43859375 0.00676758 14.43859375 0.00676758 15.90625 0.01367188 C19.21298564 0.673525 20.40908706 1.94238555 22.5 4.53125 C23.03125 6.53125 23.03125 6.53125 23 8.53125 C23.0103125 9.19125 23.020625 9.85125 23.03125 10.53125 C22.2561666 13.44921104 20.80895833 14.6243588 18.5 16.53125 C15.90625 17.04882812 15.90625 17.04882812 13 17.0625 C11.948125 17.06765625 10.89625 17.0728125 9.8125 17.078125 C8.719375 17.06265625 7.62625 17.0471875 6.5 17.03125 C4.8603125 17.05445313 4.8603125 17.05445313 3.1875 17.078125 C2.135625 17.07296875 1.08375 17.0678125 0 17.0625 C-0.9590625 17.05798828 -1.918125 17.05347656 -2.90625 17.04882812 C-6.21298564 16.388975 -7.40908706 15.12011445 -9.5 12.53125 C-10.03125 10.53125 -10.03125 10.53125 -10 8.53125 C-10.01546875 7.54125 -10.01546875 7.54125 -10.03125 6.53125 C-8.65240655 1.34030994 -4.94094259 0.02324368 0 0 Z " fill="#000000" transform="translate(421.5,223.46875)"/>
<path d="M0 0 C0.66 -0.0103125 1.32 -0.020625 2 -0.03125 C4.91796104 0.7438334 6.0931088 2.19104167 8 4.5 C8.51757812 7.09375 8.51757812 7.09375 8.53125 10 C8.53640625 11.051875 8.5415625 12.10375 8.546875 13.1875 C8.53140625 14.280625 8.5159375 15.37375 8.5 16.5 C8.51546875 17.593125 8.5309375 18.68625 8.546875 19.8125 C8.54171875 20.864375 8.5365625 21.91625 8.53125 23 C8.52673828 23.9590625 8.52222656 24.918125 8.51757812 25.90625 C7.857725 29.21298564 6.58886445 30.40908706 4 32.5 C2 33.03125 2 33.03125 0 33 C-0.99 33.01546875 -0.99 33.01546875 -2 33.03125 C-4.91796104 32.2561666 -6.0931088 30.80895833 -8 28.5 C-8.51757812 25.90625 -8.51757812 25.90625 -8.53125 23 C-8.53640625 21.948125 -8.5415625 20.89625 -8.546875 19.8125 C-8.53140625 18.719375 -8.5159375 17.62625 -8.5 16.5 C-8.51546875 15.406875 -8.5309375 14.31375 -8.546875 13.1875 C-8.53914063 11.6096875 -8.53914063 11.6096875 -8.53125 10 C-8.52673828 9.0409375 -8.52222656 8.081875 -8.51757812 7.09375 C-7.60329874 2.51200272 -4.67433964 -0.07303656 0 0 Z " fill="#000000" transform="translate(404,187.5)"/>
<path d="M0 0 C1.051875 -0.00515625 2.10375 -0.0103125 3.1875 -0.015625 C4.280625 -0.00015625 5.37375 0.0153125 6.5 0.03125 C8.1396875 0.00804687 8.1396875 0.00804687 9.8125 -0.015625 C10.864375 -0.01046875 11.91625 -0.0053125 13 0 C14.43859375 0.00676758 14.43859375 0.00676758 15.90625 0.01367188 C19.21298564 0.673525 20.40908706 1.94238555 22.5 4.53125 C23.03125 6.53125 23.03125 6.53125 23 8.53125 C23.0103125 9.19125 23.020625 9.85125 23.03125 10.53125 C22.2561666 13.44921104 20.80895833 14.6243588 18.5 16.53125 C15.90625 17.04882812 15.90625 17.04882812 13 17.0625 C11.948125 17.06765625 10.89625 17.0728125 9.8125 17.078125 C8.719375 17.06265625 7.62625 17.0471875 6.5 17.03125 C4.8603125 17.05445313 4.8603125 17.05445313 3.1875 17.078125 C2.135625 17.07296875 1.08375 17.0678125 0 17.0625 C-0.9590625 17.05798828 -1.918125 17.05347656 -2.90625 17.04882812 C-6.21298564 16.388975 -7.40908706 15.12011445 -9.5 12.53125 C-10.03125 10.53125 -10.03125 10.53125 -10 8.53125 C-10.01546875 7.54125 -10.01546875 7.54125 -10.03125 6.53125 C-8.65240655 1.34030994 -4.94094259 0.02324368 0 0 Z " fill="#000000" transform="translate(369.5,159.46875)"/>
<path d="M0 0 C3.3125 2.125 3.3125 2.125 5 5 C5.55348638 8.87440468 5.29968563 11.78044012 3 15 C-1.67165056 17.91846934 -6.67734977 17.60627821 -12 17 C-15.1875 15.5625 -15.1875 15.5625 -17 13 C-17.62938988 9.88165923 -17.78912675 7.09119995 -17 4 C-12.75154832 -1.84416199 -6.57882799 -0.95767749 0 0 Z " fill="#000000" transform="translate(433,312)"/>
<path d="M0 0 C2.5 1.5 2.5 1.5 4 4 C4.791013 8.02098277 4.62153384 10.96411027 2.5 14.5 C-1.03588973 16.62153384 -3.97901723 16.791013 -8 16 C-10.5 14.5 -10.5 14.5 -12 12 C-12.791013 7.97901723 -12.62153384 5.03588973 -10.5 1.5 C-6.96411027 -0.62153384 -4.02098277 -0.791013 0 0 Z " fill="#000000" transform="translate(144,32)"/>
</svg>
