<svg width="14" height="13" viewBox="0 0 14 13" fill="none" xmlns="http://www.w3.org/2000/svg">
<path d="M10.3414 8.42388L9.99017 8.6259V7.13122H10.9626V8.6259L10.6114 8.42388C10.5706 8.4003 10.5235 8.3887 10.4764 8.3887C10.4293 8.3887 10.3822 8.4003 10.3414 8.42388ZM13.2458 7.13086H11.4485V9.01725C11.4485 9.09451 11.3993 9.16559 11.3202 9.20223C11.2844 9.21891 11.2449 9.22689 11.2053 9.22689C11.1582 9.22689 11.1111 9.21528 11.0703 9.19171L10.476 8.85005L9.88165 9.19171C9.8072 9.23451 9.71087 9.23886 9.63222 9.20223C9.55314 9.16559 9.50393 9.09487 9.50393 9.01725V7.13086H7.70661C7.29019 7.13086 6.95117 7.41304 6.95117 7.75978V12.3711C6.95117 12.7179 7.29019 13 7.70661 13H13.2454C13.6618 13 14.0008 12.7179 14.0008 12.3711V7.75978C14.0008 7.41304 13.6622 7.13086 13.2458 7.13086Z" fill="#FAC956"/>
<path d="M0 4.98884V10.9596C0 11.2356 0.127028 11.5 0.353743 11.6951C0.580038 11.8899 0.887092 11.9991 1.20718 11.9983H5.94885V6.95792C5.94885 6.60212 6.28367 6.31377 6.69588 6.31377H13.2496V4.98884H0ZM12.8958 1.84606C12.6691 1.65093 12.3621 1.54212 12.0424 1.54248H10.921V1.81741C10.921 2.1199 10.7338 2.39917 10.4302 2.55042C10.1265 2.70166 9.75254 2.70166 9.44885 2.55042C9.14516 2.39917 8.95798 2.1199 8.95798 1.81741V1.54248H4.33283V1.81741C4.33283 2.1199 4.14607 2.39917 3.84238 2.55042C3.53869 2.70166 3.16434 2.70166 2.86065 2.55042C2.55696 2.39917 2.3702 2.1199 2.3702 1.81741V1.54248H1.20718C0.887092 1.54212 0.580038 1.65093 0.353743 1.84606C0.127448 2.04083 0 2.3056 0 2.58125V4.14266H13.2496V2.58125C13.2496 2.3056 13.1221 2.04083 12.8958 1.84606Z" fill="#F3B627"/>
<path d="M10.4329 0.423268V1.81748C10.4329 2.05106 10.2129 2.24038 9.94204 2.24038C9.67116 2.24038 9.45117 2.05106 9.45117 1.81748V0.423268C9.45117 0.189328 9.67074 0 9.94204 0C10.2133 0 10.4329 0.189328 10.4329 0.423268Z" fill="#F3B627"/>
<path d="M3.83915 0.423268V1.81748C3.83915 2.05106 3.61917 2.24038 3.34829 2.24038C3.07741 2.24038 2.85742 2.05106 2.85742 1.81748V0.423268C2.85742 0.189328 3.07699 0 3.34829 0C3.61959 0 3.83915 0.189328 3.83915 0.423268Z" fill="#F3B627"/>
</svg>
