<svg width="20" height="17" viewBox="0 0 20 17" fill="none" xmlns="http://www.w3.org/2000/svg">
<path d="M3.77486 3.82599V8.38494C3.77486 8.90862 3.93229 9.3312 4.24716 9.6527C4.56534 9.97088 5.0045 10.13 5.56463 10.13C6.12476 10.13 6.56392 9.97088 6.8821 9.6527C7.20028 9.3312 7.35937 8.90862 7.35937 8.38494V3.82599H8.46804V8.4794C8.46804 9.26491 8.2062 9.90128 7.68253 10.3885C7.15885 10.8757 6.45289 11.1193 5.56463 11.1193C4.67637 11.1193 3.97041 10.8757 3.44673 10.3885C2.92306 9.90128 2.66122 9.26491 2.66122 8.4794V3.82599H3.77486ZM9.79048 3.82599H12.4801C13.1761 3.82599 13.7429 4.04474 14.1804 4.48224C14.6212 4.91974 14.8416 5.48651 14.8416 6.18253C14.8416 6.88187 14.6179 7.45194 14.1705 7.89276C13.7263 8.33026 13.1513 8.54901 12.4453 8.54901H10.9041V11H9.79048V3.82599ZM10.9041 4.76563V7.61435H12.1818C12.6657 7.61435 13.0402 7.49006 13.3054 7.24148C13.5705 6.9929 13.7031 6.64157 13.7031 6.1875C13.7031 5.73674 13.5705 5.38707 13.3054 5.13849C13.0436 4.88991 12.6707 4.76563 12.1868 4.76563H10.9041ZM16.9297 11H15.8161V3.82599H16.9297V11Z" fill="black" fill-opacity="0.8"/>
<path d="M3.5 12.7734H16.5" stroke="#4E39CD"/>
<rect opacity="0.8" x="0.5" y="0.773438" width="19" height="15" rx="1.5" stroke="black"/>
</svg>
