<svg width="33" height="34" viewBox="0 0 33 34" fill="none" xmlns="http://www.w3.org/2000/svg">
<g clip-path="url(#clip0_7_109700)">
<path d="M23.9894 29.623C24.0423 29.6607 24.1047 29.6809 24.1686 29.6809C24.2325 29.6809 24.2949 29.6607 24.3478 29.623L26.511 28.0827C27.4297 27.4425 28.1854 26.5739 28.7116 25.5532C29.2378 24.5325 29.5183 23.391 29.5286 22.229V17.3076C29.5282 17.2439 29.5092 17.1818 29.4743 17.1299C29.4394 17.0779 29.3902 17.0386 29.3334 17.0171L24.2838 14.9904C24.2097 14.9602 24.1275 14.9602 24.0534 14.9904L19.0038 17.0171C18.947 17.0386 18.8978 17.0779 18.8629 17.1299C18.8279 17.1818 18.809 17.2439 18.8086 17.3076V22.229C18.8189 23.391 19.0994 24.5325 19.6256 25.5532C20.1518 26.5739 20.9074 27.4425 21.8262 28.0827L23.9894 29.623Z" fill="#B1B1B1"/>
<path d="M20.6505 1.49316V1.55059L17.1689 6.89761H17.1305H10.1289L13.6105 1.55059V1.49316H20.6505Z" fill="#B1B1B1"/>
<path d="M17.1298 6.95488V14.3286L13.6098 11.6263L10.0898 14.3286V6.95488L10.1282 6.89746H17.1298V6.95488Z" fill="#B1B1B1"/>
<path d="M10.1282 6.89746L10.0898 6.95488V6.89746H10.1282Z" fill="#B1B1B1"/>
<path d="M25.7809 13.5414C25.6961 13.5414 25.6147 13.5059 25.5547 13.4425C25.4947 13.3792 25.4609 13.2932 25.4609 13.2037V6.89735C25.4609 6.80776 25.4947 6.72185 25.5547 6.6585C25.6147 6.59516 25.6961 6.55957 25.7809 6.55957C25.8658 6.55957 25.9472 6.59516 26.0072 6.6585C26.0672 6.72185 26.1009 6.80776 26.1009 6.89735V13.2037C26.1009 13.2932 26.0672 13.3792 26.0072 13.4425C25.9472 13.5059 25.8658 13.5414 25.7809 13.5414Z" fill="#495771"/>
<path d="M19.3806 28.853H2.10063C1.84602 28.853 1.60184 28.7463 1.4218 28.5562C1.24177 28.3662 1.14063 28.1084 1.14062 27.8397V6.89746H1.78063V27.8397C1.78063 27.9293 1.81434 28.0152 1.87435 28.0785C1.93436 28.1419 2.01576 28.1775 2.10063 28.1775H19.3806V28.853Z" fill="#495771"/>
<path d="M29.3001 14.6664H28.6601V2.6719L26.0425 7.09341C26.0137 7.14209 25.9736 7.18221 25.926 7.20998C25.8784 7.23776 25.8249 7.25228 25.7705 7.25216H1.4601C1.40172 7.25206 1.34448 7.23511 1.29458 7.20313C1.24467 7.17116 1.20401 7.12538 1.17698 7.07076C1.14996 7.01614 1.1376 6.95476 1.14125 6.89326C1.1449 6.83176 1.16442 6.77248 1.1977 6.72185L4.7177 1.31741C4.74527 1.26953 4.78368 1.22965 4.82949 1.20134C4.8753 1.17304 4.92705 1.15721 4.9801 1.15527H28.9801C29.065 1.15527 29.1464 1.19086 29.2064 1.25421C29.2664 1.31755 29.3001 1.40347 29.3001 1.49305V14.6664ZM2.0681 6.55972H25.5945L28.3945 1.83083H5.1401L2.0681 6.55972Z" fill="#495771"/>
<path d="M24.1811 32.6225C24.0523 32.6235 23.9263 32.5835 23.8195 32.5077L20.7763 30.3189C20.1456 29.8664 19.5658 29.3395 19.0483 28.7482C17.4082 26.8893 16.4939 24.4451 16.4883 21.9049V15.8485C16.4884 15.7166 16.5269 15.588 16.5984 15.4799C16.6699 15.3718 16.7711 15.2894 16.8883 15.2439L23.9571 12.3998C24.1054 12.3394 24.2696 12.3394 24.4179 12.3998L31.4835 15.2439C31.5965 15.2932 31.6929 15.3772 31.7602 15.485C31.8275 15.5928 31.8627 15.7194 31.8611 15.8485V21.9015C31.8498 23.5662 31.4536 25.2028 30.7068 26.6692C29.9601 28.1355 28.8855 29.3872 27.5763 30.3155L24.5331 32.5043C24.4293 32.5794 24.3069 32.6205 24.1811 32.6225ZM24.1811 13.0314L17.1027 15.8755V21.9049C17.1095 24.2753 17.9644 26.5555 19.4963 28.2889C19.9813 28.8421 20.5245 29.3351 21.1155 29.7582L24.1811 31.947L27.2275 29.7582C28.4485 28.8904 29.4504 27.7212 30.1464 26.352C30.8423 24.9829 31.2112 23.4552 31.2211 21.9015V15.8485L28.8467 14.9129L24.1811 13.0314Z" fill="#495771"/>
<path d="M23.9558 24.8844L21.543 22.3916L21.991 21.9086L23.911 23.8913L26.8006 20.2568L27.2934 20.6926L23.9558 24.8844Z" fill="#495771"/>
</g>
<defs>
<clipPath id="clip0_7_109700">
<rect width="32" height="33.7778" fill="white" transform="translate(0.5)"/>
</clipPath>
</defs>
</svg>
