<svg width="42" height="32" viewBox="0 0 42 32" fill="none" xmlns="http://www.w3.org/2000/svg">
<path d="M10.9741 22.1441C10.6329 22.339 10.6939 22.8506 11.0716 22.9846C11.2421 23.0577 12.5214 23.1064 13.8982 23.1064C15.9938 23.1064 16.4689 23.0699 16.7004 22.9115C17.0294 22.6801 17.0416 22.5705 16.7248 22.2538C16.4933 22.0223 16.3227 22.0101 13.8372 22.0101C12.2534 22.0101 11.0959 22.071 10.9741 22.1441Z" fill="#495771"/>
<path d="M19.0645 22.205C18.7233 22.4365 18.7233 22.6801 19.0645 22.9115C19.2959 23.0699 19.7711 23.1064 21.8789 23.1064C23.3897 23.1064 24.5106 23.0577 24.6568 22.9846C24.7908 22.9115 24.8882 22.7288 24.8882 22.5583C24.8882 22.3877 24.7908 22.205 24.6568 22.1319C24.5106 22.0589 23.3897 22.0101 21.8789 22.0101C19.7711 22.0101 19.2959 22.0467 19.0645 22.205Z" fill="#495771"/>
<path d="M10.7809 26.1746C10.586 26.3695 10.5981 26.5766 10.8296 26.808C11.0002 26.9786 11.6825 27.0029 16.5316 27.0029C22.4894 27.0029 22.4041 27.0151 22.3066 26.3695L22.2701 26.0893L16.6047 26.0528C12.2917 26.0284 10.8905 26.065 10.7809 26.1746Z" fill="#495771"/>
<path d="M27.3251 0.0816851C27.0936 0.154773 21.416 1.45817 14.7272 3.0052C8.02616 4.54005 2.31202 5.91654 2.01961 6.06271C0.983996 6.56215 0.277344 7.68283 0.277344 8.82787C0.277344 9.47348 0.533201 10.5576 0.679405 10.5576C0.740323 10.5576 5.57724 9.4613 11.4132 8.10917C17.2492 6.76923 24.0599 5.19784 26.5331 4.6375C29.0186 4.06498 31.1386 3.56554 31.2726 3.529C31.4553 3.48027 31.4797 3.395 31.4188 2.96866C31.236 1.84798 30.4928 0.763839 29.6034 0.300949C29.043 0.0207787 27.9586 -0.0888538 27.3251 0.0816851Z" fill="#B1B1B1"/>
<path d="M24.2169 7.53473L16.4193 9.37411L13.0688 9.45937C10.2909 9.52028 9.62083 9.58119 9.1213 9.76391C8.54866 9.97099 7.63489 10.7384 7.37903 11.2135C7.28156 11.384 6.59928 11.5789 4.26001 12.1271C2.61522 12.5047 1.23846 12.8458 1.18973 12.8823C1.10444 12.9798 3.49244 23.4313 3.78485 24.1988C4.21128 25.356 5.44183 26.2696 6.56273 26.2696H6.94042L7.00134 27.4025C7.09881 29.12 7.65926 30.1676 8.86544 30.8132C9.35279 31.0812 9.4137 31.0812 17.6742 31.1178L25.9835 31.1543V30.7889V30.4234L17.7961 30.3869C10.2909 30.3503 9.55991 30.3381 9.20658 30.1432C8.69487 29.8631 8.13442 29.1687 7.96385 28.5962C7.86638 28.2673 7.82983 25.7823 7.82983 20.1911C7.82983 13.3209 7.8542 12.188 8.01258 11.8104C8.28062 11.1769 8.5243 10.9333 9.23095 10.6044L9.84013 10.3121H23.4737C36.9488 10.3121 37.1194 10.3121 37.6311 10.5557C38.2037 10.8359 38.6911 11.4693 38.886 12.2002C38.9713 12.4925 39.02 14.0395 39.02 16.0616V19.4481H39.3855H39.751V15.8789C39.751 13.8325 39.7023 12.1271 39.6292 11.8713C39.3977 11.0429 38.7763 10.2877 37.9966 9.88572C37.2778 9.52028 37.2412 9.52028 35.0969 9.48374L32.9282 9.43501L32.8185 8.99648C32.7576 8.74068 32.5627 7.90017 32.3799 7.10838C32.1972 6.32878 32.0388 5.68317 32.0388 5.69535C32.0266 5.69535 28.5055 6.53586 24.2169 7.53473Z" fill="#B1B1B1"/>
<path d="M33.4471 15.8449C32.4224 16.043 31.5354 16.546 30.8319 17.2928C29.7766 18.4358 29.5625 19.1064 29.4555 21.4687L29.379 23.5262L28.7367 23.6024C27.9567 23.6938 27.3602 24.1816 27.2379 24.8521C27.192 25.1265 27.1614 26.6505 27.192 28.2203L27.2379 31.1008L27.7426 31.5428L28.2473 32L34.4412 31.9543L40.6504 31.9086L41.0174 31.4513C41.3845 30.9941 41.3845 30.9484 41.3845 27.7631C41.3845 24.593 41.3845 24.5321 41.0174 24.1206C40.7574 23.8005 40.4822 23.6786 39.9163 23.6176L39.1669 23.5262L39.0751 21.3925C39.0293 19.8532 38.9222 19.0912 38.7387 18.6644C37.8517 16.6679 35.5423 15.4334 33.4471 15.8449ZM35.3894 17.0794C36.3835 17.3233 37.454 18.4053 37.7752 19.5027C38.0964 20.539 38.1116 23.1909 37.8058 23.4348C37.6681 23.5567 36.567 23.6024 34.1812 23.5719L30.7554 23.5262V21.4687C30.7554 19.5789 30.786 19.3655 31.1225 18.8016C32.0401 17.2471 33.5694 16.6222 35.3894 17.0794ZM35.16 25.6447C35.7258 26.1628 35.8482 27.0316 35.4811 27.7174C35.3129 28.007 35.16 28.6013 35.1447 29.0128C35.0835 30.1559 34.38 30.6436 33.7377 30.0035C33.5236 29.7901 33.4318 29.5005 33.4318 29.0281C33.4318 28.6623 33.3247 28.1594 33.2024 27.9307C33.08 27.6869 32.973 27.1992 32.973 26.8334C32.973 25.538 34.2729 24.8369 35.16 25.6447Z" fill="#495771"/>
</svg>
