<svg width="4" height="14" viewBox="0 0 4 14" fill="none" xmlns="http://www.w3.org/2000/svg">
<path id="Vector" d="M1.66667 9.95654C2.10869 9.95654 2.53262 10.1234 2.84518 10.4203C3.15774 10.7172 3.33333 11.1199 3.33333 11.5399C3.33333 11.9598 3.15774 12.3625 2.84518 12.6595C2.53262 12.9564 2.10869 13.1232 1.66667 13.1232C1.22464 13.1232 0.800716 12.9564 0.488156 12.6595C0.175595 12.3625 0 11.9598 0 11.5399C0 11.1199 0.175595 10.7172 0.488156 10.4203C0.800716 10.1234 1.22464 9.95654 1.66667 9.95654ZM1.66667 5.20654C2.10869 5.20654 2.53262 5.37336 2.84518 5.67029C3.15774 5.96722 3.33333 6.36995 3.33333 6.78988C3.33333 7.2098 3.15774 7.61253 2.84518 7.90946C2.53262 8.20639 2.10869 8.37321 1.66667 8.37321C1.22464 8.37321 0.800716 8.20639 0.488156 7.90946C0.175595 7.61253 0 7.2098 0 6.78988C0 6.36995 0.175595 5.96722 0.488156 5.67029C0.800716 5.37336 1.22464 5.20654 1.66667 5.20654ZM1.66667 0.456543C2.10869 0.456543 2.53262 0.623358 2.84518 0.92029C3.15774 1.21722 3.33333 1.61995 3.33333 2.03988C3.33333 2.4598 3.15774 2.86253 2.84518 3.15946C2.53262 3.45639 2.10869 3.62321 1.66667 3.62321C1.22464 3.62321 0.800716 3.45639 0.488156 3.15946C0.175595 2.86253 0 2.4598 0 2.03988C0 1.61995 0.175595 1.21722 0.488156 0.92029C0.800716 0.623358 1.22464 0.456543 1.66667 0.456543Z" fill="#717171"/>
</svg>
