<svg xmlns="http://www.w3.org/2000/svg" style="transform:rotate(180deg) scaleX(-1);-webkit-transform: rotate(180deg) scaleX(-1);-moz-transform: rotate(180deg) scaleX(-1);
-o-transform: rotate(180deg) scaleX(-1);
-ms-transform: rotate(180deg) scaleX(-1);" class="nasa-flip-vertical" fill="currentColor" height="22" width="22"
    viewBox="0 0 512 512">
    <path
        d="M508 202c0 19 3 43 0 59-3 24-23 45-36 63-14 19-26 42-46 50-28 14-78 0-112 4-2 27 7 63-17 71-7 4-23 3-34 3-87 0-178 0-259 0-2 0-2-3-2-3 0-3 0-7 0-11 84 0 172 0 255 0 12 0 28 3 35-1 15-5 9-49 9-69 0-77 1-158-2-230-35-2-74-2-109 0-6 27-23 49-51 52-34 3-59-22-65-52-20 2-50-6-58 8-3 30 2 68-3 97-2 0-6 0-9 0-2-16-2-33-2-51 0-17-2-36 3-50 8-24 41-15 69-18 6-39 50-65 87-44 15 8 25 25 30 44 51 2 108 2 159 0 7-27 28-50 57-52 31-1 55 23 62 52 20 0 35 5 38 21 5 14 1 39 1 57z m-372-117c-58-4-65 83-10 91 21 3 39-9 45-19 21-34-7-70-35-72z m252 278c3 3 20 4 29 2 19-5 33-33 45-49 15-20 32-38 33-62-22-3-49-2-76-2-13 0-28-2-31 9-6 11-3 31-3 51 0 19 0 43 3 51z m25-278c-27-2-47 21-48 45 0 26 17 43 37 46 30 5 53-18 53-46 0-24-19-43-42-45z m56 53c-7 25-23 48-51 52-24 2-48-11-59-33-4-6-4-12-8-19-10 0-26-2-36 0-1 71 0 145-1 216 5 18 39 9 58 11 8-39-15-114 20-125 15-5 35-1 54-1 16 0 35 3 50-1 2-12 0-29 0-46 0-30 6-60-27-54z m-288 273c-59 0-118 0-176 0-1 0-1-3-1-3 0-3 0-7 0-11 59 0 118 0 177 0 0 5 0 10 0 14z m-177-56c48 0 97 0 146 0 0 5 0 8 0 13-49 0-97 0-145 0-3-2-1-8-1-13z m0-42c38 0 76 0 114 0 0 5 0 8 0 13-37 0-76 0-113 0-3-2-1-8-1-13z m0-41c27 0 56 0 84 0 0 5 0 8 0 13-28 0-55 0-83 0-3-2-1-10-1-13z">
    </path>
</svg>