<svg width="25" height="33" viewBox="0 0 25 33" fill="none" xmlns="http://www.w3.org/2000/svg">
<path d="M15.8844 24.8452L15.8844 24.8452L15.8783 24.8495L12.494 27.247L9.10974 24.8495L9.10977 24.8495L9.10362 24.8452C7.71035 23.8793 6.56072 22.5661 5.75885 21.0185C4.95738 19.4716 4.52881 17.7396 4.51264 15.9749V8.17019L12.494 4.98308L20.4754 8.17019V15.9748C20.4592 17.7396 20.0306 19.4716 19.2292 21.0185C18.4273 22.5661 17.2777 23.8793 15.8844 24.8452Z" stroke="#B1B1B1" stroke-width="1.47059"/>
<path d="M7.18728 28.7675L7.18692 28.7673C6.18437 28.0517 5.26246 27.218 4.43921 26.2823L4.43826 26.2812C1.83212 23.3422 0.376651 19.4746 0.367647 15.4521V5.65356C0.367849 5.51138 0.409596 5.37418 0.48518 5.26051L0.179036 5.05694L0.485181 5.26051C0.560665 5.14699 0.665401 5.06345 0.783103 5.01794L0.783112 5.01796L0.787128 5.01635L12.2827 0.414605L12.2842 0.414019C12.4367 0.35219 12.6048 0.35219 12.7574 0.414021L12.7588 0.414581L24.2437 5.01414C24.3557 5.06384 24.4542 5.1486 24.5245 5.26062C24.5958 5.37423 24.634 5.50949 24.6323 5.64874H24.6323V5.65332V15.4459C24.6141 18.0822 23.9833 20.6732 22.7955 22.9937C21.6077 25.3145 19.8991 27.2937 17.8198 28.7606L17.8178 28.762L12.8689 32.3035L12.868 32.3041C12.7596 32.3822 12.6338 32.4238 12.5061 32.4262C12.3758 32.4269 12.2466 32.3866 12.1352 32.3082C12.1349 32.308 12.1346 32.3078 12.1343 32.3076L7.18728 28.7675ZM12.6473 0.754083L12.5106 0.699257L12.3739 0.753912L0.862694 5.35566L0.631518 5.44808V5.69704L0.631516 15.4525L0.631519 15.4536C0.642791 19.3761 2.0645 23.1524 4.61639 26.0255C5.42337 26.9413 6.3276 27.7577 7.31165 28.4587L7.31204 28.459L12.2975 32.0005L12.511 32.1522L12.7242 31.9998L17.6768 28.4594C17.6771 28.4592 17.6774 28.459 17.6777 28.4588C19.7126 27.0196 21.3807 25.082 22.5387 22.8154C23.6969 20.5485 24.3103 18.0201 24.3268 15.4494V15.4471V5.65332V5.40256L24.0933 5.31104L20.2347 3.79823L20.232 3.79716L12.6473 0.754083Z" stroke="#B1B1B1" stroke-width="0.735294"/>
<path d="M12.1465 20.2716L8.22266 16.2382L8.95121 15.4567L12.0736 18.6648L16.7728 12.7842L17.5742 13.4892L12.1465 20.2716Z" fill="#B1B1B1"/>
</svg>
